{
	"asset":{
		"generator":"Khronos glTF Blender I/O v5.0.21",
		"version":"2.0"
	},
	"scene":0,
	"scenes":[
		{
			"name":"Scene",
			"nodes":[
				0,
				3
			]
		}
	],
	"nodes":[
		{
			"mesh":0,
			"name":"Object_2"
		},
		{
			"mesh":1,
			"name":"Object_2.001",
			"rotation":[
				-0.5,
				0.5,
				0.5,
				0.5
			],
			"scale":[
				0.699999988079071,
				0.699999988079071,
				0.699999988079071
			],
			"translation":[
				-0.1400000900030136,
				0,
				0
			]
		},
		{
			"children":[
				1
			],
			"name":"Missle.obj.cleaner.materialmerger.gles"
		},
		{
			"children":[
				2
			],
			"name":"Sketchfab_model",
			"rotation":[
				-0.7071065902709961,
				0,
				0,
				0.7071069478988647
			],
			"translation":[
				0.13999998569488525,
				0,
				0
			]
		}
	],
	"materials":[
		{
			"doubleSided":true,
			"name":"blinn1SG.001",
			"normalTexture":{
				"index":0
			},
			"pbrMetallicRoughness":{
				"baseColorTexture":{
					"index":1
				},
				"metallicRoughnessTexture":{
					"index":2
				}
			}
		},
		{
			"doubleSided":true,
			"emissiveFactor":[
				1,
				1,
				1
			],
			"emissiveTexture":{
				"index":3
			},
			"name":"None.001",
			"occlusionTexture":{
				"index":4
			},
			"pbrMetallicRoughness":{
				"baseColorTexture":{
					"index":5
				},
				"metallicRoughnessTexture":{
					"index":4
				},
				"roughnessFactor":0.8448485136032104
			}
		}
	],
	"meshes":[
		{
			"name":"Object_0.002",
			"primitives":[
				{
					"attributes":{
						"POSITION":0,
						"NORMAL":1,
						"TEXCOORD_0":2
					},
					"indices":3,
					"material":0
				}
			]
		},
		{
			"name":"Object_0.003",
			"primitives":[
				{
					"attributes":{
						"POSITION":4,
						"NORMAL":5,
						"TEXCOORD_0":6
					},
					"indices":7,
					"material":1
				}
			]
		}
	],
	"textures":[
		{
			"sampler":0,
			"source":0
		},
		{
			"sampler":0,
			"source":1
		},
		{
			"sampler":0,
			"source":2
		},
		{
			"sampler":0,
			"source":3
		},
		{
			"sampler":0,
			"source":4
		},
		{
			"sampler":0,
			"source":5
		}
	],
	"images":[
		{
			"mimeType":"image/png",
			"name":"blinn1SG_normal",
			"uri":"blinn1SG_normal.png"
		},
		{
			"mimeType":"image/png",
			"name":"blinn1SG_baseColor",
			"uri":"blinn1SG_baseColor.png"
		},
		{
			"mimeType":"image/png",
			"name":"blinn1SG_metallicRoughness",
			"uri":"blinn1SG_metallicRoughness.png"
		},
		{
			"mimeType":"image/png",
			"name":"None_emissive",
			"uri":"None_emissive.png"
		},
		{
			"mimeType":"image/png",
			"name":"None_metallicRoughness",
			"uri":"None_metallicRoughness.png"
		},
		{
			"mimeType":"image/png",
			"name":"None_baseColor",
			"uri":"None_baseColor.png"
		}
	],
	"accessors":[
		{
			"bufferView":0,
			"componentType":5126,
			"count":17,
			"max":[
				0.000291000003926456,
				8.629690170288086,
				3.592729091644287
			],
			"min":[
				-0.0002770000137388706,
				6.893299102783203,
				3.5921640396118164
			],
			"type":"VEC3"
		},
		{
			"bufferView":1,
			"componentType":5126,
			"count":17,
			"type":"VEC3"
		},
		{
			"bufferView":2,
			"componentType":5126,
			"count":17,
			"type":"VEC2"
		},
		{
			"bufferView":3,
			"componentType":5123,
			"count":39,
			"type":"SCALAR"
		},
		{
			"bufferView":4,
			"componentType":5126,
			"count":1192,
			"max":[
				0.6511449813842773,
				-0.002140045166015625,
				0.6511449813842773
			],
			"min":[
				-0.6511449813842773,
				-7.677860260009766,
				-0.6511449813842773
			],
			"type":"VEC3"
		},
		{
			"bufferView":5,
			"componentType":5126,
			"count":1192,
			"type":"VEC3"
		},
		{
			"bufferView":6,
			"componentType":5126,
			"count":1192,
			"type":"VEC2"
		},
		{
			"bufferView":7,
			"componentType":5123,
			"count":2922,
			"type":"SCALAR"
		}
	],
	"bufferViews":[
		{
			"buffer":0,
			"byteLength":204,
			"byteOffset":0,
			"target":34962
		},
		{
			"buffer":0,
			"byteLength":204,
			"byteOffset":204,
			"target":34962
		},
		{
			"buffer":0,
			"byteLength":136,
			"byteOffset":408,
			"target":34962
		},
		{
			"buffer":0,
			"byteLength":78,
			"byteOffset":544,
			"target":34963
		},
		{
			"buffer":0,
			"byteLength":14304,
			"byteOffset":624,
			"target":34962
		},
		{
			"buffer":0,
			"byteLength":14304,
			"byteOffset":14928,
			"target":34962
		},
		{
			"buffer":0,
			"byteLength":9536,
			"byteOffset":29232,
			"target":34962
		},
		{
			"buffer":0,
			"byteLength":5844,
			"byteOffset":38768,
			"target":34963
		}
	],
	"samplers":[
		{
			"magFilter":9729,
			"minFilter":9987
		}
	],
	"buffers":[
		{
			"byteLength":44612,
			"uri":"scene.bin"
		}
	]
}
