{
	"asset":{
		"generator":"Khronos glTF Blender I/O v5.0.21",
		"version":"2.0"
	},
	"scene":0,
	"scenes":[
		{
			"name":"Scene",
			"nodes":[
				3
			]
		}
	],
	"nodes":[
		{
			"mesh":0,
			"name":"Object_2"
		},
		{
			"mesh":1,
			"name":"Object_3",
			"rotation":[
				0,
				0,
				0.7071068286895752,
				0.7071068286895752
			],
			"scale":[
				0.14999999105930328,
				0.09999999403953552,
				0.15000000596046448
			]
		},
		{
			"children":[
				0,
				1
			],
			"name":"ee2deda453454ff3824a577167458d9b.obj.cleaner.materialmerger.gles"
		},
		{
			"children":[
				2
			],
			"name":"Sketchfab_model",
			"rotation":[
				-0.70710688829422,
				0,
				0,
				0.7071066498756409
			]
		}
	],
	"materials":[
		{
			"doubleSided":true,
			"name":"blinn1SG.001",
			"normalTexture":{
				"index":0
			},
			"pbrMetallicRoughness":{
				"baseColorTexture":{
					"index":1
				},
				"metallicRoughnessTexture":{
					"index":2
				}
			}
		}
	],
	"meshes":[
		{
			"name":"Object_0.002",
			"primitives":[
				{
					"attributes":{
						"POSITION":0,
						"NORMAL":1,
						"TEXCOORD_0":2
					},
					"indices":3,
					"material":0
				}
			]
		},
		{
			"name":"Object_1.001",
			"primitives":[
				{
					"attributes":{
						"POSITION":4,
						"NORMAL":5,
						"TEXCOORD_0":6
					},
					"indices":7,
					"material":0
				}
			]
		}
	],
	"textures":[
		{
			"sampler":0,
			"source":0
		},
		{
			"sampler":0,
			"source":1
		},
		{
			"sampler":0,
			"source":2
		}
	],
	"images":[
		{
			"mimeType":"image/png",
			"name":"blinn1SG_normal",
			"uri":"blinn1SG_normal.png"
		},
		{
			"mimeType":"image/png",
			"name":"blinn1SG_baseColor",
			"uri":"blinn1SG_baseColor.png"
		},
		{
			"mimeType":"image/png",
			"name":"blinn1SG_metallicRoughness",
			"uri":"blinn1SG_metallicRoughness.png"
		}
	],
	"accessors":[
		{
			"bufferView":0,
			"componentType":5126,
			"count":17,
			"max":[
				0.000291000003926456,
				8.629690170288086,
				3.592729091644287
			],
			"min":[
				-0.0002770000137388706,
				6.893299102783203,
				3.5921640396118164
			],
			"type":"VEC3"
		},
		{
			"bufferView":1,
			"componentType":5126,
			"count":17,
			"type":"VEC3"
		},
		{
			"bufferView":2,
			"componentType":5126,
			"count":17,
			"type":"VEC2"
		},
		{
			"bufferView":3,
			"componentType":5123,
			"count":39,
			"type":"SCALAR"
		},
		{
			"bufferView":4,
			"componentType":5126,
			"count":429,
			"max":[
				3.9031643867492676,
				-0.30716609954833984,
				3.8896093368530273
			],
			"min":[
				-4.032604694366455,
				-24.478004455566406,
				-4.227142810821533
			],
			"type":"VEC3"
		},
		{
			"bufferView":5,
			"componentType":5126,
			"count":429,
			"type":"VEC3"
		},
		{
			"bufferView":6,
			"componentType":5126,
			"count":429,
			"type":"VEC2"
		},
		{
			"bufferView":7,
			"componentType":5123,
			"count":1182,
			"type":"SCALAR"
		}
	],
	"bufferViews":[
		{
			"buffer":0,
			"byteLength":204,
			"byteOffset":0,
			"target":34962
		},
		{
			"buffer":0,
			"byteLength":204,
			"byteOffset":204,
			"target":34962
		},
		{
			"buffer":0,
			"byteLength":136,
			"byteOffset":408,
			"target":34962
		},
		{
			"buffer":0,
			"byteLength":78,
			"byteOffset":544,
			"target":34963
		},
		{
			"buffer":0,
			"byteLength":5148,
			"byteOffset":624,
			"target":34962
		},
		{
			"buffer":0,
			"byteLength":5148,
			"byteOffset":5772,
			"target":34962
		},
		{
			"buffer":0,
			"byteLength":3432,
			"byteOffset":10920,
			"target":34962
		},
		{
			"buffer":0,
			"byteLength":2364,
			"byteOffset":14352,
			"target":34963
		}
	],
	"samplers":[
		{
			"magFilter":9729,
			"minFilter":9987
		}
	],
	"buffers":[
		{
			"byteLength":16716,
			"uri":"scene.bin"
		}
	]
}
