{
  "accessors": [
    {
      "bufferView": 1,
      "componentType": 5126,
      "count": 7983,
      "max": [
        23946.841796875,
        2460.97998046875,
        12099.9853515625
      ],
      "min": [
        3763.841796875,
        45.1976318359375,
        0.0
      ],
      "type": "VEC3"
    },
    {
      "bufferView": 1,
      "byteOffset": 95796,
      "componentType": 5126,
      "count": 7983,
      "max": [
        1.0,
        1.0,
        1.0
      ],
      "min": [
        -1.0,
        -1.0,
        -1.0
      ],
      "type": "VEC3"
    },
    {
      "bufferView": 1,
      "byteOffset": 191592,
      "componentType": 5126,
      "count": 7983,
      "max": [
        0.7529411911964417,
        0.7529411911964417,
        0.7529411911964417
      ],
      "min": [
        0.11372549086809158,
        0.11372549086809158,
        0.11372549086809158
      ],
      "type": "VEC3"
    },
    {
      "bufferView": 0,
      "componentType": 5125,
      "count": 40314,
      "type": "SCALAR"
    },
    {
      "bufferView": 1,
      "byteOffset": 287388,
      "componentType": 5126,
      "count": 9264,
      "max": [
        15117.2744140625,
        2610.96044921875,
        12249.9658203125
      ],
      "min": [
        3763.841796875,
        716.795166015625,
        5835.43798828125
      ],
      "type": "VEC3"
    },
    {
      "bufferView": 1,
      "byteOffset": 398556,
      "componentType": 5126,
      "count": 9264,
      "max": [
        0.08626453578472137,
        -0.006787889637053013,
        0.9998844861984253
      ],
      "min": [
        -0.09823059290647507,
        -1.0,
        -0.9998825192451477
      ],
      "type": "VEC3"
    },
    {
      "bufferView": 1,
      "byteOffset": 509724,
      "componentType": 5126,
      "count": 9264,
      "max": [
        0.501960813999176,
        0.501960813999176,
        0.501960813999176
      ],
      "min": [
        0.11372549086809158,
        0.11372549086809158,
        0.11372549086809158
      ],
      "type": "VEC3"
    },
    {
      "bufferView": 0,
      "byteOffset": 161256,
      "componentType": 5125,
      "count": 51912,
      "type": "SCALAR"
    },
    {
      "bufferView": 1,
      "byteOffset": 620892,
      "componentType": 5126,
      "count": 9735,
      "max": [
        16138.615234375,
        2090.489501953125,
        20587.33203125
      ],
      "min": [
        3763.841796875,
        399.6231689453125,
        200.0
      ],
      "type": "VEC3"
    },
    {
      "bufferView": 1,
      "byteOffset": 737712,
      "componentType": 5126,
      "count": 9735,
      "max": [
        0.9966039657592773,
        1.0,
        0.9997193813323975
      ],
      "min": [
        -0.13381387293338776,
        -1.0,
        -0.9998842477798462
      ],
      "type": "VEC3"
    },
    {
      "bufferView": 1,
      "byteOffset": 854532,
      "componentType": 5126,
      "count": 9735,
      "max": [
        0.501960813999176,
        0.501960813999176,
        0.501960813999176
      ],
      "min": [
        0.0,
        0.0,
        0.0
      ],
      "type": "VEC3"
    },
    {
      "bufferView": 0,
      "byteOffset": 368904,
      "componentType": 5125,
      "count": 55887,
      "type": "SCALAR"
    },
    {
      "bufferView": 1,
      "byteOffset": 971352,
      "componentType": 5126,
      "count": 9632,
      "max": [
        15603.9794921875,
        2388.751708984375,
        20590.947265625
      ],
      "min": [
        3763.841796875,
        424.6763916015625,
        2799.83984375
      ],
      "type": "VEC3"
    },
    {
      "bufferView": 1,
      "byteOffset": 1086936,
      "componentType": 5126,
      "count": 9632,
      "max": [
        1.0,
        1.0,
        0.9999836087226868
      ],
      "min": [
        -1.0,
        -1.0,
        -1.0
      ],
      "type": "VEC3"
    },
    {
      "bufferView": 1,
      "byteOffset": 1202520,
      "componentType": 5126,
      "count": 9632,
      "max": [
        1.0,
        1.0,
        1.0
      ],
      "min": [
        0.0,
        0.0,
        0.0
      ],
      "type": "VEC3"
    },
    {
      "bufferView": 0,
      "byteOffset": 592452,
      "componentType": 5125,
      "count": 49686,
      "type": "SCALAR"
    },
    {
      "bufferView": 1,
      "byteOffset": 1318104,
      "componentType": 5126,
      "count": 9981,
      "max": [
        21413.841796875,
        3102.3125,
        12387.4453125
      ],
      "min": [
        5313.841796875,
        124.2086181640625,
        40.0
      ],
      "type": "VEC3"
    },
    {
      "bufferView": 1,
      "byteOffset": 1437876,
      "componentType": 5126,
      "count": 9981,
      "max": [
        1.0,
        0.9993084669113159,
        0.9985384345054626
      ],
      "min": [
        -1.0,
        -0.998104989528656,
        -0.9999901056289673
      ],
      "type": "VEC3"
    },
    {
      "bufferView": 1,
      "byteOffset": 1557648,
      "componentType": 5126,
      "count": 9981,
      "max": [
        0.501960813999176,
        0.501960813999176,
        0.501960813999176
      ],
      "min": [
        0.0,
        0.0,
        0.0
      ],
      "type": "VEC3"
    },
    {
      "bufferView": 0,
      "byteOffset": 791196,
      "componentType": 5125,
      "count": 55944,
      "type": "SCALAR"
    },
    {
      "bufferView": 1,
      "byteOffset": 1677420,
      "componentType": 5126,
      "count": 8788,
      "max": [
        20775.009765625,
        3102.3125,
        12703.173828125
      ],
      "min": [
        9070.9033203125,
        556.795166015625,
        40.0
      ],
      "type": "VEC3"
    },
    {
      "bufferView": 1,
      "byteOffset": 1782876,
      "componentType": 5126,
      "count": 8788,
      "max": [
        0.9961623549461365,
        1.0,
        0.9965740442276001
      ],
      "min": [
        -0.9983980059623718,
        -0.9999983906745911,
        -1.0
      ],
      "type": "VEC3"
    },
    {
      "bufferView": 1,
      "byteOffset": 1888332,
      "componentType": 5126,
      "count": 8788,
      "max": [
        1.0,
        0.501960813999176,
        0.501960813999176
      ],
      "min": [
        0.20392157137393951,
        0.20392157137393951,
        0.0
      ],
      "type": "VEC3"
    },
    {
      "bufferView": 0,
      "byteOffset": 1014972,
      "componentType": 5125,
      "count": 49623,
      "type": "SCALAR"
    },
    {
      "bufferView": 1,
      "byteOffset": 1993788,
      "componentType": 5126,
      "count": 9989,
      "max": [
        21413.841796875,
        2051.09765625,
        12132.66796875
      ],
      "min": [
        11509.162109375,
        849.9999389648438,
        200.0
      ],
      "type": "VEC3"
    },
    {
      "bufferView": 1,
      "byteOffset": 2113656,
      "componentType": 5126,
      "count": 9989,
      "max": [
        0.998802661895752,
        0.9977763891220093,
        0.9995258450508118
      ],
      "min": [
        -0.9995548129081726,
        -0.9987451434135437,
        -1.0
      ],
      "type": "VEC3"
    },
    {
      "bufferView": 1,
      "byteOffset": 2233524,
      "componentType": 5126,
      "count": 9989,
      "max": [
        0.6470588445663452,
        0.6470588445663452,
        0.6470588445663452
      ],
      "min": [
        0.20392157137393951,
        0.20392157137393951,
        0.20392157137393951
      ],
      "type": "VEC3"
    },
    {
      "bufferView": 0,
      "byteOffset": 1213464,
      "componentType": 5125,
      "count": 58434,
      "type": "SCALAR"
    },
    {
      "bufferView": 1,
      "byteOffset": 2353392,
      "componentType": 5126,
      "count": 6855,
      "max": [
        25981.44140625,
        5331.78076171875,
        13897.173828125
      ],
      "min": [
        0.0,
        561.231689453125,
        0.0
      ],
      "type": "VEC3"
    },
    {
      "bufferView": 1,
      "byteOffset": 2435652,
      "componentType": 5126,
      "count": 6855,
      "max": [
        1.0,
        1.0,
        1.0
      ],
      "min": [
        -1.0,
        -1.0,
        -0.9998841881752014
      ],
      "type": "VEC3"
    },
    {
      "bufferView": 1,
      "byteOffset": 2517912,
      "componentType": 5126,
      "count": 6855,
      "max": [
        0.501960813999176,
        0.501960813999176,
        0.501960813999176
      ],
      "min": [
        0.11372549086809158,
        0.11372549086809158,
        0.11372549086809158
      ],
      "type": "VEC3"
    },
    {
      "bufferView": 0,
      "byteOffset": 1447200,
      "componentType": 5125,
      "count": 38850,
      "type": "SCALAR"
    },
    {
      "bufferView": 1,
      "byteOffset": 2600172,
      "componentType": 5126,
      "count": 6327,
      "max": [
        32897.1953125,
        5399.5029296875,
        14641.931640625
      ],
      "min": [
        29581.015625,
        3853.07421875,
        11783.9521484375
      ],
      "type": "VEC3"
    },
    {
      "bufferView": 1,
      "byteOffset": 2676096,
      "componentType": 5126,
      "count": 6327,
      "max": [
        0.4417038857936859,
        0.9955796003341675,
        0.9516283273696899
      ],
      "min": [
        0.017005210742354393,
        0.3055751919746399,
        -0.9509449005126953
      ],
      "type": "VEC3"
    },
    {
      "bufferView": 1,
      "byteOffset": 2752020,
      "componentType": 5126,
      "count": 6327,
      "max": [
        1.0,
        1.0,
        1.0
      ],
      "min": [
        1.0,
        1.0,
        1.0
      ],
      "type": "VEC3"
    },
    {
      "bufferView": 0,
      "byteOffset": 1602600,
      "componentType": 5125,
      "count": 37401,
      "type": "SCALAR"
    },
    {
      "bufferView": 1,
      "byteOffset": 2827944,
      "componentType": 5126,
      "count": 8669,
      "max": [
        35148.0,
        5577.87939453125,
        14734.3974609375
      ],
      "min": [
        27185.484375,
        2957.482421875,
        13213.1923828125
      ],
      "type": "VEC3"
    },
    {
      "bufferView": 1,
      "byteOffset": 2931972,
      "componentType": 5126,
      "count": 8669,
      "max": [
        0.8739835619926453,
        0.9937654137611389,
        0.9850752949714661
      ],
      "min": [
        -0.6437723636627197,
        0.17067278921604156,
        0.012261345982551575
      ],
      "type": "VEC3"
    },
    {
      "bufferView": 1,
      "byteOffset": 3036000,
      "componentType": 5126,
      "count": 8669,
      "max": [
        0.20392157137393951,
        0.20392157137393951,
        0.20392157137393951
      ],
      "min": [
        0.20392157137393951,
        0.20392157137393951,
        0.20392157137393951
      ],
      "type": "VEC3"
    },
    {
      "bufferView": 0,
      "byteOffset": 1752204,
      "componentType": 5125,
      "count": 51129,
      "type": "SCALAR"
    },
    {
      "bufferView": 1,
      "byteOffset": 3140028,
      "componentType": 5126,
      "count": 9852,
      "max": [
        35148.0,
        5577.87939453125,
        13213.1923828125
      ],
      "min": [
        15117.2744140625,
        1416.795166015625,
        5839.0517578125
      ],
      "type": "VEC3"
    },
    {
      "bufferView": 1,
      "byteOffset": 3258252,
      "componentType": 5126,
      "count": 9852,
      "max": [
        0.9357722401618958,
        0.994067907333374,
        0.9973245859146118
      ],
      "min": [
        -0.9966660141944885,
        -0.9980859160423279,
        -0.9978744983673096
      ],
      "type": "VEC3"
    },
    {
      "bufferView": 1,
      "byteOffset": 3376476,
      "componentType": 5126,
      "count": 9852,
      "max": [
        0.501960813999176,
        0.501960813999176,
        0.501960813999176
      ],
      "min": [
        0.20392157137393951,
        0.20392157137393951,
        0.20392157137393951
      ],
      "type": "VEC3"
    },
    {
      "bufferView": 0,
      "byteOffset": 1956720,
      "componentType": 5125,
      "count": 58014,
      "type": "SCALAR"
    },
    {
      "bufferView": 1,
      "byteOffset": 3494700,
      "componentType": 5126,
      "count": 7904,
      "max": [
        15513.78515625,
        2309.083984375,
        14043.3291015625
      ],
      "min": [
        0.048828125,
        1094.68408203125,
        5835.43798828125
      ],
      "type": "VEC3"
    },
    {
      "bufferView": 1,
      "byteOffset": 3589548,
      "componentType": 5126,
      "count": 7904,
      "max": [
        1.0,
        1.0,
        0.9999050498008728
      ],
      "min": [
        -1.0,
        -0.9999985098838806,
        -0.9998824596405029
      ],
      "type": "VEC3"
    },
    {
      "bufferView": 1,
      "byteOffset": 3684396,
      "componentType": 5126,
      "count": 7904,
      "max": [
        0.501960813999176,
        0.501960813999176,
        0.501960813999176
      ],
      "min": [
        0.11372549086809158,
        0.11372549086809158,
        0.11372549086809158
      ],
      "type": "VEC3"
    },
    {
      "bufferView": 0,
      "byteOffset": 2188776,
      "componentType": 5125,
      "count": 45564,
      "type": "SCALAR"
    },
    {
      "bufferView": 1,
      "byteOffset": 3779244,
      "componentType": 5126,
      "count": 3563,
      "max": [
        14182.306640625,
        2959.444091796875,
        14024.564453125
      ],
      "min": [
        1945.45703125,
        1500.11474609375,
        12383.0556640625
      ],
      "type": "VEC3"
    },
    {
      "bufferView": 1,
      "byteOffset": 3822000,
      "componentType": 5126,
      "count": 3563,
      "max": [
        -0.004670659080147743,
        0.9999824166297913,
        0.9763966798782349
      ],
      "min": [
        -0.14774371683597565,
        -0.3835672438144684,
        -0.9999001026153564
      ],
      "type": "VEC3"
    },
    {
      "bufferView": 1,
      "byteOffset": 3864756,
      "componentType": 5126,
      "count": 3563,
      "max": [
        0.20392157137393951,
        0.20392157137393951,
        0.20392157137393951
      ],
      "min": [
        0.20392157137393951,
        0.20392157137393951,
        0.20392157137393951
      ],
      "type": "VEC3"
    },
    {
      "bufferView": 0,
      "byteOffset": 2371032,
      "componentType": 5125,
      "count": 20979,
      "type": "SCALAR"
    },
    {
      "bufferView": 1,
      "byteOffset": 3907512,
      "componentType": 5126,
      "count": 9632,
      "max": [
        30277.57421875,
        5556.09228515625,
        14733.7392578125
      ],
      "min": [
        23917.142578125,
        3785.429443359375,
        12010.3291015625
      ],
      "type": "VEC3"
    },
    {
      "bufferView": 1,
      "byteOffset": 4023096,
      "componentType": 5126,
      "count": 9632,
      "max": [
        0.6878018379211426,
        0.9971458911895752,
        0.9900469183921814
      ],
      "min": [
        -0.7809370756149292,
        0.14016972482204437,
        -0.9052479267120361
      ],
      "type": "VEC3"
    },
    {
      "bufferView": 1,
      "byteOffset": 4138680,
      "componentType": 5126,
      "count": 9632,
      "max": [
        0.250980406999588,
        0.250980406999588,
        0.250980406999588
      ],
      "min": [
        0.250980406999588,
        0.250980406999588,
        0.250980406999588
      ],
      "type": "VEC3"
    },
    {
      "bufferView": 0,
      "byteOffset": 2454948,
      "componentType": 5125,
      "count": 56817,
      "type": "SCALAR"
    },
    {
      "bufferView": 1,
      "byteOffset": 4254264,
      "componentType": 5126,
      "count": 13941,
      "max": [
        26306.734375,
        4885.25830078125,
        14613.1923828125
      ],
      "min": [
        14069.1123046875,
        1095.7767333984375,
        13213.1923828125
      ],
      "type": "VEC3"
    },
    {
      "bufferView": 1,
      "byteOffset": 4421556,
      "componentType": 5126,
      "count": 13941,
      "max": [
        0.07156781107187271,
        0.9873794913291931,
        0.9990959167480469
      ],
      "min": [
        -0.2251085489988327,
        -0.999811589717865,
        0.012924385257065296
      ],
      "type": "VEC3"
    },
    {
      "bufferView": 1,
      "byteOffset": 4588848,
      "componentType": 5126,
      "count": 13941,
      "max": [
        0.20392157137393951,
        0.20392157137393951,
        0.20392157137393951
      ],
      "min": [
        0.20392157137393951,
        0.20392157137393951,
        0.20392157137393951
      ],
      "type": "VEC3"
    },
    {
      "bufferView": 0,
      "byteOffset": 2682216,
      "componentType": 5125,
      "count": 83148,
      "type": "SCALAR"
    },
    {
      "bufferView": 1,
      "byteOffset": 4756140,
      "componentType": 5126,
      "count": 8866,
      "max": [
        30277.57421875,
        5556.09228515625,
        13213.1923828125
      ],
      "min": [
        14069.1123046875,
        1095.7767333984375,
        11692.302734375
      ],
      "type": "VEC3"
    },
    {
      "bufferView": 1,
      "byteOffset": 4862532,
      "componentType": 5126,
      "count": 8866,
      "max": [
        0.9819269776344299,
        0.9906945824623108,
        -0.0022551617585122585
      ],
      "min": [
        -0.22787140309810638,
        -0.9999179840087891,
        -0.9989941120147705
      ],
      "type": "VEC3"
    },
    {
      "bufferView": 1,
      "byteOffset": 4968924,
      "componentType": 5126,
      "count": 8866,
      "max": [
        0.250980406999588,
        0.250980406999588,
        0.250980406999588
      ],
      "min": [
        0.20392157137393951,
        0.20392157137393951,
        0.20392157137393951
      ],
      "type": "VEC3"
    },
    {
      "bufferView": 0,
      "byteOffset": 3014808,
      "componentType": 5125,
      "count": 52266,
      "type": "SCALAR"
    },
    {
      "bufferView": 1,
      "byteOffset": 5075316,
      "componentType": 5126,
      "count": 8086,
      "max": [
        39987.2734375,
        5617.11181640625,
        13213.1923828125
      ],
      "min": [
        27388.533203125,
        1021.0912475585938,
        11794.90625
      ],
      "type": "VEC3"
    },
    {
      "bufferView": 1,
      "byteOffset": 5172348,
      "componentType": 5126,
      "count": 8086,
      "max": [
        0.619972288608551,
        0.9997573494911194,
        0.022396553307771683
      ],
      "min": [
        -0.17618703842163086,
        -0.9995174407958984,
        -0.9885035753250122
      ],
      "type": "VEC3"
    },
    {
      "bufferView": 1,
      "byteOffset": 5269380,
      "componentType": 5126,
      "count": 8086,
      "max": [
        1.0,
        1.0,
        1.0
      ],
      "min": [
        0.11372549086809158,
        0.11372549086809158,
        0.11372549086809158
      ],
      "type": "VEC3"
    },
    {
      "bufferView": 0,
      "byteOffset": 3223872,
      "componentType": 5125,
      "count": 47844,
      "type": "SCALAR"
    },
    {
      "bufferView": 1,
      "byteOffset": 5366412,
      "componentType": 5126,
      "count": 2966,
      "max": [
        29616.255859375,
        5617.31201171875,
        14631.171875
      ],
      "min": [
        27388.533203125,
        4289.38818359375,
        13213.1923828125
      ],
      "type": "VEC3"
    },
    {
      "bufferView": 1,
      "byteOffset": 5402004,
      "componentType": 5126,
      "count": 2966,
      "max": [
        0.24753783643245697,
        0.9997653961181641,
        0.9535995721817017
      ],
      "min": [
        -0.27216795086860657,
        0.3008408546447754,
        0.018257444724440575
      ],
      "type": "VEC3"
    },
    {
      "bufferView": 1,
      "byteOffset": 5437596,
      "componentType": 5126,
      "count": 2966,
      "max": [
        1.0,
        1.0,
        1.0
      ],
      "min": [
        1.0,
        1.0,
        1.0
      ],
      "type": "VEC3"
    },
    {
      "bufferView": 0,
      "byteOffset": 3415248,
      "componentType": 5125,
      "count": 17514,
      "type": "SCALAR"
    },
    {
      "bufferView": 1,
      "byteOffset": 5473188,
      "componentType": 5126,
      "count": 18778,
      "max": [
        35065.68359375,
        4472.056640625,
        14769.6904296875
      ],
      "min": [
        26255.5703125,
        1106.425048828125,
        11656.8046875
      ],
      "type": "VEC3"
    },
    {
      "bufferView": 1,
      "byteOffset": 5698524,
      "componentType": 5126,
      "count": 18778,
      "max": [
        0.26180315017700195,
        0.6103432178497314,
        0.9999916553497314
      ],
      "min": [
        -0.1732092946767807,
        -0.9999862313270569,
        -0.999997615814209
      ],
      "type": "VEC3"
    },
    {
      "bufferView": 1,
      "byteOffset": 5923860,
      "componentType": 5126,
      "count": 18778,
      "max": [
        0.20392157137393951,
        0.20392157137393951,
        0.20392157137393951
      ],
      "min": [
        0.20392157137393951,
        0.20392157137393951,
        0.20392157137393951
      ],
      "type": "VEC3"
    },
    {
      "bufferView": 0,
      "byteOffset": 3485304,
      "componentType": 5125,
      "count": 111789,
      "type": "SCALAR"
    },
    {
      "bufferView": 1,
      "byteOffset": 6149196,
      "componentType": 5126,
      "count": 7859,
      "max": [
        42978.234375,
        3385.35205078125,
        14373.552734375
      ],
      "min": [
        34709.5546875,
        1020.8093872070313,
        13163.1923828125
      ],
      "type": "VEC3"
    },
    {
      "bufferView": 1,
      "byteOffset": 6243504,
      "componentType": 5126,
      "count": 7859,
      "max": [
        0.9836266040802002,
        0.9940735697746277,
        1.0
      ],
      "min": [
        -0.19848494231700897,
        -0.9994892477989197,
        -0.23039007186889648
      ],
      "type": "VEC3"
    },
    {
      "bufferView": 1,
      "byteOffset": 6337812,
      "componentType": 5126,
      "count": 7859,
      "max": [
        0.20392157137393951,
        0.20392157137393951,
        0.20392157137393951
      ],
      "min": [
        0.11372549086809158,
        0.11372549086809158,
        0.11372549086809158
      ],
      "type": "VEC3"
    },
    {
      "bufferView": 0,
      "byteOffset": 3932460,
      "componentType": 5125,
      "count": 46290,
      "type": "SCALAR"
    },
    {
      "bufferView": 1,
      "byteOffset": 6432120,
      "componentType": 5126,
      "count": 7850,
      "max": [
        42978.234375,
        1864.918701171875,
        13263.1923828125
      ],
      "min": [
        9821.9453125,
        664.1873779296875,
        200.0
      ],
      "type": "VEC3"
    },
    {
      "bufferView": 1,
      "byteOffset": 6526320,
      "componentType": 5126,
      "count": 7850,
      "max": [
        1.0,
        0.9975600242614746,
        0.9965864419937134
      ],
      "min": [
        -1.0,
        -1.0,
        -0.9999957084655762
      ],
      "type": "VEC3"
    },
    {
      "bufferView": 1,
      "byteOffset": 6620520,
      "componentType": 5126,
      "count": 7850,
      "max": [
        0.20392157137393951,
        0.20392157137393951,
        0.20392157137393951
      ],
      "min": [
        0.11372549086809158,
        0.11372549086809158,
        0.11372549086809158
      ],
      "type": "VEC3"
    },
    {
      "bufferView": 0,
      "byteOffset": 4117620,
      "componentType": 5125,
      "count": 45663,
      "type": "SCALAR"
    },
    {
      "bufferView": 1,
      "byteOffset": 6714720,
      "componentType": 5126,
      "count": 9914,
      "max": [
        20114.59375,
        2124.48828125,
        12902.765625
      ],
      "min": [
        2562.017578125,
        9.899658203125,
        200.0
      ],
      "type": "VEC3"
    },
    {
      "bufferView": 1,
      "byteOffset": 6833688,
      "componentType": 5126,
      "count": 9914,
      "max": [
        1.0,
        1.0,
        1.0
      ],
      "min": [
        -1.0,
        -1.0,
        -0.9999678134918213
      ],
      "type": "VEC3"
    },
    {
      "bufferView": 1,
      "byteOffset": 6952656,
      "componentType": 5126,
      "count": 9914,
      "max": [
        0.501960813999176,
        0.501960813999176,
        0.501960813999176
      ],
      "min": [
        0.0,
        0.0,
        0.0
      ],
      "type": "VEC3"
    },
    {
      "bufferView": 0,
      "byteOffset": 4300272,
      "componentType": 5125,
      "count": 55551,
      "type": "SCALAR"
    },
    {
      "bufferView": 1,
      "byteOffset": 7071624,
      "componentType": 5126,
      "count": 8696,
      "max": [
        23946.841796875,
        2090.50244140625,
        12029.0302734375
      ],
      "min": [
        4148.95703125,
        0.0,
        0.0
      ],
      "type": "VEC3"
    },
    {
      "bufferView": 1,
      "byteOffset": 7175976,
      "componentType": 5126,
      "count": 8696,
      "max": [
        1.0,
        1.0,
        1.0
      ],
      "min": [
        -1.0,
        -0.9999999403953552,
        -0.9994637370109558
      ],
      "type": "VEC3"
    },
    {
      "bufferView": 1,
      "byteOffset": 7280328,
      "componentType": 5126,
      "count": 8696,
      "max": [
        0.501960813999176,
        0.501960813999176,
        0.501960813999176
      ],
      "min": [
        0.0,
        0.0,
        0.0
      ],
      "type": "VEC3"
    },
    {
      "bufferView": 0,
      "byteOffset": 4522476,
      "componentType": 5125,
      "count": 48252,
      "type": "SCALAR"
    },
    {
      "bufferView": 1,
      "byteOffset": 7384680,
      "componentType": 5126,
      "count": 9535,
      "max": [
        21296.36328125,
        2610.782958984375,
        12712.783203125
      ],
      "min": [
        4150.6484375,
        2.9854736328125,
        40.0
      ],
      "type": "VEC3"
    },
    {
      "bufferView": 1,
      "byteOffset": 7499100,
      "componentType": 5126,
      "count": 9535,
      "max": [
        1.0,
        1.0,
        0.9999893307685852
      ],
      "min": [
        -0.9950463175773621,
        -0.9997977018356323,
        -1.0
      ],
      "type": "VEC3"
    },
    {
      "bufferView": 1,
      "byteOffset": 7613520,
      "componentType": 5126,
      "count": 9535,
      "max": [
        0.6470588445663452,
        0.6470588445663452,
        0.6470588445663452
      ],
      "min": [
        0.0,
        0.0,
        0.0
      ],
      "type": "VEC3"
    },
    {
      "bufferView": 0,
      "byteOffset": 4715484,
      "componentType": 5125,
      "count": 52701,
      "type": "SCALAR"
    },
    {
      "bufferView": 1,
      "byteOffset": 7727940,
      "componentType": 5126,
      "count": 9303,
      "max": [
        23946.841796875,
        3102.3125,
        12902.765625
      ],
      "min": [
        2562.017578125,
        691.795166015625,
        0.0
      ],
      "type": "VEC3"
    },
    {
      "bufferView": 1,
      "byteOffset": 7839576,
      "componentType": 5126,
      "count": 9303,
      "max": [
        1.0,
        1.0,
        0.9985813498497009
      ],
      "min": [
        -1.0,
        -1.0,
        -0.9999603629112244
      ],
      "type": "VEC3"
    },
    {
      "bufferView": 1,
      "byteOffset": 7951212,
      "componentType": 5126,
      "count": 9303,
      "max": [
        1.0,
        1.0,
        1.0
      ],
      "min": [
        0.20392157137393951,
        0.20392157137393951,
        0.20392157137393951
      ],
      "type": "VEC3"
    },
    {
      "bufferView": 0,
      "byteOffset": 4926288,
      "componentType": 5125,
      "count": 53232,
      "type": "SCALAR"
    },
    {
      "bufferView": 1,
      "byteOffset": 8062848,
      "componentType": 5126,
      "count": 12703,
      "max": [
        13919.31640625,
        1442.137451171875,
        12249.9658203125
      ],
      "min": [
        7013.841796875,
        40.810546875,
        9854.837890625
      ],
      "type": "VEC3"
    },
    {
      "bufferView": 1,
      "byteOffset": 8215284,
      "componentType": 5126,
      "count": 12703,
      "max": [
        0.5494388937950134,
        0.9998478889465332,
        0.9975532293319702
      ],
      "min": [
        -0.570192813873291,
        -0.027964187785983086,
        -0.9999889731407166
      ],
      "type": "VEC3"
    },
    {
      "bufferView": 1,
      "byteOffset": 8367720,
      "componentType": 5126,
      "count": 12703,
      "max": [
        0.6470588445663452,
        0.6470588445663452,
        0.6470588445663452
      ],
      "min": [
        0.6470588445663452,
        0.6470588445663452,
        0.6470588445663452
      ],
      "type": "VEC3"
    },
    {
      "bufferView": 0,
      "byteOffset": 5139216,
      "componentType": 5125,
      "count": 74952,
      "type": "SCALAR"
    },
    {
      "bufferView": 1,
      "byteOffset": 8520156,
      "componentType": 5126,
      "count": 9625,
      "max": [
        23946.841796875,
        1700.0,
        20272.912109375
      ],
      "min": [
        13919.265625,
        0.0,
        9972.45703125
      ],
      "type": "VEC3"
    },
    {
      "bufferView": 1,
      "byteOffset": 8635656,
      "componentType": 5126,
      "count": 9625,
      "max": [
        1.0,
        0.9999979138374329,
        1.0
      ],
      "min": [
        -0.9661638140678406,
        -1.0,
        -1.0
      ],
      "type": "VEC3"
    },
    {
      "bufferView": 1,
      "byteOffset": 8751156,
      "componentType": 5126,
      "count": 9625,
      "max": [
        0.20392157137393951,
        0.20392157137393951,
        0.20392157137393951
      ],
      "min": [
        0.0,
        0.0,
        0.0
      ],
      "type": "VEC3"
    },
    {
      "bufferView": 0,
      "byteOffset": 5439024,
      "componentType": 5125,
      "count": 55341,
      "type": "SCALAR"
    },
    {
      "bufferView": 1,
      "byteOffset": 8866656,
      "componentType": 5126,
      "count": 10013,
      "max": [
        23946.841796875,
        2460.97998046875,
        26426.384765625
      ],
      "min": [
        3763.841796875,
        45.1976318359375,
        10369.384765625
      ],
      "type": "VEC3"
    },
    {
      "bufferView": 1,
      "byteOffset": 8986812,
      "componentType": 5126,
      "count": 10013,
      "max": [
        1.0,
        1.0,
        1.0
      ],
      "min": [
        -1.0,
        -1.0,
        -1.0
      ],
      "type": "VEC3"
    },
    {
      "bufferView": 1,
      "byteOffset": 9106968,
      "componentType": 5126,
      "count": 10013,
      "max": [
        0.7529411911964417,
        0.7529411911964417,
        0.7529411911964417
      ],
      "min": [
        0.0,
        0.0,
        0.0
      ],
      "type": "VEC3"
    },
    {
      "bufferView": 0,
      "byteOffset": 5660388,
      "componentType": 5125,
      "count": 52368,
      "type": "SCALAR"
    },
    {
      "bufferView": 1,
      "byteOffset": 9227124,
      "componentType": 5126,
      "count": 9098,
      "max": [
        25747.9375,
        3452.86181640625,
        19674.7421875
      ],
      "min": [
        3437.982421875,
        1064.1873779296875,
        4304.7470703125
      ],
      "type": "VEC3"
    },
    {
      "bufferView": 1,
      "byteOffset": 9336300,
      "componentType": 5126,
      "count": 9098,
      "max": [
        1.0,
        1.0,
        1.0
      ],
      "min": [
        -0.997918426990509,
        -0.9999693632125854,
        -0.9629656076431274
      ],
      "type": "VEC3"
    },
    {
      "bufferView": 1,
      "byteOffset": 9445476,
      "componentType": 5126,
      "count": 9098,
      "max": [
        0.501960813999176,
        0.501960813999176,
        0.501960813999176
      ],
      "min": [
        0.20392157137393951,
        0.20392157137393951,
        0.20392157137393951
      ],
      "type": "VEC3"
    },
    {
      "bufferView": 0,
      "byteOffset": 5869860,
      "componentType": 5125,
      "count": 52788,
      "type": "SCALAR"
    },
    {
      "bufferView": 1,
      "byteOffset": 9554652,
      "componentType": 5126,
      "count": 9551,
      "max": [
        26294.3671875,
        9192.34375,
        12899.765625
      ],
      "min": [
        3881.470703125,
        1227.00048828125,
        4304.7470703125
      ],
      "type": "VEC3"
    },
    {
      "bufferView": 1,
      "byteOffset": 9669264,
      "componentType": 5126,
      "count": 9551,
      "max": [
        0.9998716711997986,
        0.9999862313270569,
        0.9999893307685852
      ],
      "min": [
        -0.997838020324707,
        -0.9999212622642517,
        -0.9999797940254211
      ],
      "type": "VEC3"
    },
    {
      "bufferView": 1,
      "byteOffset": 9783876,
      "componentType": 5126,
      "count": 9551,
      "max": [
        0.501960813999176,
        0.501960813999176,
        0.501960813999176
      ],
      "min": [
        0.20392157137393951,
        0.20392157137393951,
        0.20392157137393951
      ],
      "type": "VEC3"
    },
    {
      "bufferView": 0,
      "byteOffset": 6081012,
      "componentType": 5125,
      "count": 55704,
      "type": "SCALAR"
    },
    {
      "bufferView": 1,
      "byteOffset": 9898488,
      "componentType": 5126,
      "count": 9526,
      "max": [
        26294.3671875,
        9192.34375,
        22072.162109375
      ],
      "min": [
        3437.982421875,
        1260.101806640625,
        9411.4921875
      ],
      "type": "VEC3"
    },
    {
      "bufferView": 1,
      "byteOffset": 10012800,
      "componentType": 5126,
      "count": 9526,
      "max": [
        0.9989944100379944,
        0.9999451637268066,
        0.9999691843986511
      ],
      "min": [
        -0.9995213747024536,
        -1.0,
        -1.0
      ],
      "type": "VEC3"
    },
    {
      "bufferView": 1,
      "byteOffset": 10127112,
      "componentType": 5126,
      "count": 9526,
      "max": [
        0.501960813999176,
        0.501960813999176,
        0.501960813999176
      ],
      "min": [
        0.20392157137393951,
        0.20392157137393951,
        0.20392157137393951
      ],
      "type": "VEC3"
    },
    {
      "bufferView": 0,
      "byteOffset": 6303828,
      "componentType": 5125,
      "count": 55452,
      "type": "SCALAR"
    },
    {
      "bufferView": 1,
      "byteOffset": 10241424,
      "componentType": 5126,
      "count": 7349,
      "max": [
        35088.30078125,
        3787.0126953125,
        21613.890625
      ],
      "min": [
        3532.734375,
        1411.3494873046875,
        13526.619140625
      ],
      "type": "VEC3"
    },
    {
      "bufferView": 1,
      "byteOffset": 10329612,
      "componentType": 5126,
      "count": 7349,
      "max": [
        0.9981496930122375,
        0.45224276185035706,
        0.867213785648346
      ],
      "min": [
        -0.9998716115951538,
        -0.999994158744812,
        -0.9990574717521667
      ],
      "type": "VEC3"
    },
    {
      "bufferView": 1,
      "byteOffset": 10417800,
      "componentType": 5126,
      "count": 7349,
      "max": [
        0.20392157137393951,
        0.20392157137393951,
        0.20392157137393951
      ],
      "min": [
        0.20392157137393951,
        0.20392157137393951,
        0.20392157137393951
      ],
      "type": "VEC3"
    },
    {
      "bufferView": 0,
      "byteOffset": 6525636,
      "componentType": 5125,
      "count": 43047,
      "type": "SCALAR"
    },
    {
      "bufferView": 1,
      "byteOffset": 10505988,
      "componentType": 5126,
      "count": 9857,
      "max": [
        11912.2900390625,
        8306.2265625,
        22121.63671875
      ],
      "min": [
        3437.982421875,
        1226.722412109375,
        9546.533203125
      ],
      "type": "VEC3"
    },
    {
      "bufferView": 1,
      "byteOffset": 10624272,
      "componentType": 5126,
      "count": 9857,
      "max": [
        0.49749401211738586,
        0.9999697208404541,
        0.9505524635314941
      ],
      "min": [
        -0.5916445255279541,
        -0.5579992532730103,
        -0.9999814033508301
      ],
      "type": "VEC3"
    },
    {
      "bufferView": 1,
      "byteOffset": 10742556,
      "componentType": 5126,
      "count": 9857,
      "max": [
        0.501960813999176,
        0.501960813999176,
        0.501960813999176
      ],
      "min": [
        0.20392157137393951,
        0.20392157137393951,
        0.20392157137393951
      ],
      "type": "VEC3"
    },
    {
      "bufferView": 0,
      "byteOffset": 6697824,
      "componentType": 5125,
      "count": 58335,
      "type": "SCALAR"
    },
    {
      "bufferView": 1,
      "byteOffset": 10860840,
      "componentType": 5126,
      "count": 6877,
      "max": [
        35088.30078125,
        3784.4765625,
        23626.544921875
      ],
      "min": [
        3881.470703125,
        1227.0003662109375,
        9867.755859375
      ],
      "type": "VEC3"
    },
    {
      "bufferView": 1,
      "byteOffset": 10943364,
      "componentType": 5126,
      "count": 6877,
      "max": [
        0.9996392726898193,
        0.9885887503623962,
        0.9977837800979614
      ],
      "min": [
        -0.21981459856033325,
        -0.9999895691871643,
        -0.9999892711639404
      ],
      "type": "VEC3"
    },
    {
      "bufferView": 1,
      "byteOffset": 11025888,
      "componentType": 5126,
      "count": 6877,
      "max": [
        0.501960813999176,
        0.501960813999176,
        0.501960813999176
      ],
      "min": [
        0.11372549086809158,
        0.11372549086809158,
        0.11372549086809158
      ],
      "type": "VEC3"
    },
    {
      "bufferView": 0,
      "byteOffset": 6931164,
      "componentType": 5125,
      "count": 39900,
      "type": "SCALAR"
    },
    {
      "bufferView": 1,
      "byteOffset": 11108412,
      "componentType": 5126,
      "count": 8063,
      "max": [
        16138.615234375,
        2090.489501953125,
        26226.384765625
      ],
      "min": [
        3763.841796875,
        399.6231689453125,
        14398.6279296875
      ],
      "type": "VEC3"
    },
    {
      "bufferView": 1,
      "byteOffset": 11205168,
      "componentType": 5126,
      "count": 8063,
      "max": [
        0.13381387293338776,
        0.9998477101325989,
        0.9997193813323975
      ],
      "min": [
        -0.04033690318465233,
        -1.0,
        -0.9998521208763123
      ],
      "type": "VEC3"
    },
    {
      "bufferView": 1,
      "byteOffset": 11301924,
      "componentType": 5126,
      "count": 8063,
      "max": [
        1.0,
        0.48627451062202454,
        0.250980406999588
      ],
      "min": [
        0.0,
        0.0,
        0.0
      ],
      "type": "VEC3"
    },
    {
      "bufferView": 0,
      "byteOffset": 7090764,
      "componentType": 5125,
      "count": 45309,
      "type": "SCALAR"
    },
    {
      "bufferView": 1,
      "byteOffset": 11398680,
      "componentType": 5126,
      "count": 9237,
      "max": [
        15513.78515625,
        2610.510498046875,
        23123.3125
      ],
      "min": [
        3763.841796875,
        560.5362548828125,
        14176.4189453125
      ],
      "type": "VEC3"
    },
    {
      "bufferView": 1,
      "byteOffset": 11509524,
      "componentType": 5126,
      "count": 9237,
      "max": [
        1.0,
        0.9987053275108337,
        0.9987313747406006
      ],
      "min": [
        -0.07643357664346695,
        -1.0,
        -0.9998844861984253
      ],
      "type": "VEC3"
    },
    {
      "bufferView": 1,
      "byteOffset": 11620368,
      "componentType": 5126,
      "count": 9237,
      "max": [
        1.0,
        1.0,
        1.0
      ],
      "min": [
        0.11372549086809158,
        0.11372549086809158,
        0.11372549086809158
      ],
      "type": "VEC3"
    },
    {
      "bufferView": 0,
      "byteOffset": 7272000,
      "componentType": 5125,
      "count": 51453,
      "type": "SCALAR"
    },
    {
      "bufferView": 1,
      "byteOffset": 11731212,
      "componentType": 5126,
      "count": 5010,
      "max": [
        15513.78515625,
        1573.0540771484375,
        20587.33203125
      ],
      "min": [
        15117.2744140625,
        560.5362548828125,
        19384.560546875
      ],
      "type": "VEC3"
    },
    {
      "bufferView": 1,
      "byteOffset": 11791332,
      "componentType": 5126,
      "count": 5010,
      "max": [
        1.0,
        0.9987053275108337,
        0.9972790479660034
      ],
      "min": [
        0.047164253890514374,
        -0.9987053275108337,
        -0.9972735643386841
      ],
      "type": "VEC3"
    },
    {
      "bufferView": 1,
      "byteOffset": 11851452,
      "componentType": 5126,
      "count": 5010,
      "max": [
        0.501960813999176,
        0.501960813999176,
        0.501960813999176
      ],
      "min": [
        0.11372549086809158,
        0.11372549086809158,
        0.11372549086809158
      ],
      "type": "VEC3"
    },
    {
      "bufferView": 0,
      "byteOffset": 7477812,
      "componentType": 5125,
      "count": 28638,
      "type": "SCALAR"
    },
    {
      "bufferView": 1,
      "byteOffset": 11911572,
      "componentType": 5126,
      "count": 7757,
      "max": [
        11911.109375,
        8306.2265625,
        17014.892578125
      ],
      "min": [
        6337.3994140625,
        1864.42333984375,
        9450.275390625
      ],
      "type": "VEC3"
    },
    {
      "bufferView": 1,
      "byteOffset": 12004656,
      "componentType": 5126,
      "count": 7757,
      "max": [
        0.33988144993782043,
        0.29997721314430237,
        0.9999861121177673
      ],
      "min": [
        -0.11345148831605911,
        -0.024194102734327316,
        0.8913440704345703
      ],
      "type": "VEC3"
    },
    {
      "bufferView": 1,
      "byteOffset": 12097740,
      "componentType": 5126,
      "count": 7757,
      "max": [
        1.0,
        1.0,
        1.0
      ],
      "min": [
        0.0,
        0.20392157137393951,
        0.0
      ],
      "type": "VEC3"
    },
    {
      "bufferView": 0,
      "byteOffset": 7592364,
      "componentType": 5125,
      "count": 45969,
      "type": "SCALAR"
    },
    {
      "bufferView": 1,
      "byteOffset": 12190824,
      "componentType": 5126,
      "count": 7824,
      "max": [
        11911.109375,
        8306.2265625,
        9568.16015625
      ],
      "min": [
        6337.3994140625,
        1864.42333984375,
        9411.4921875
      ],
      "type": "VEC3"
    },
    {
      "bufferView": 1,
      "byteOffset": 12284712,
      "componentType": 5126,
      "count": 7824,
      "max": [
        0.11346324533224106,
        0.02383899688720703,
        0.9999815821647644
      ],
      "min": [
        -0.3398808240890503,
        -0.2999759316444397,
        0.8913447856903076
      ],
      "type": "VEC3"
    },
    {
      "bufferView": 1,
      "byteOffset": 12378600,
      "componentType": 5126,
      "count": 7824,
      "max": [
        1.0,
        0.48627451062202454,
        0.20392157137393951
      ],
      "min": [
        0.20392157137393951,
        0.20392157137393951,
        0.0
      ],
      "type": "VEC3"
    },
    {
      "bufferView": 0,
      "byteOffset": 7776240,
      "componentType": 5125,
      "count": 46425,
      "type": "SCALAR"
    },
    {
      "bufferView": 1,
      "byteOffset": 12472488,
      "componentType": 5126,
      "count": 6878,
      "max": [
        14189.3271484375,
        9192.34375,
        16944.42578125
      ],
      "min": [
        6306.787109375,
        1864.42333984375,
        16734.3203125
      ],
      "type": "VEC3"
    },
    {
      "bufferView": 1,
      "byteOffset": 12555024,
      "componentType": 5126,
      "count": 6878,
      "max": [
        0.3731290102005005,
        0.9975659251213074,
        0.9999647736549377
      ],
      "min": [
        -0.48636025190353394,
        -0.9726114869117737,
        -0.9999797940254211
      ],
      "type": "VEC3"
    },
    {
      "bufferView": 1,
      "byteOffset": 12637560,
      "componentType": 5126,
      "count": 6878,
      "max": [
        0.501960813999176,
        0.501960813999176,
        0.501960813999176
      ],
      "min": [
        0.250980406999588,
        0.250980406999588,
        0.250980406999588
      ],
      "type": "VEC3"
    },
    {
      "bufferView": 0,
      "byteOffset": 7961940,
      "componentType": 5125,
      "count": 40434,
      "type": "SCALAR"
    },
    {
      "bufferView": 1,
      "byteOffset": 12720096,
      "componentType": 5126,
      "count": 9848,
      "max": [
        25747.9375,
        8306.2265625,
        26426.384765625
      ],
      "min": [
        6337.3994140625,
        1716.310791015625,
        16558.62890625
      ],
      "type": "VEC3"
    },
    {
      "bufferView": 1,
      "byteOffset": 12838272,
      "componentType": 5126,
      "count": 9848,
      "max": [
        0.9979457259178162,
        0.9998170137405396,
        1.0
      ],
      "min": [
        -0.24965792894363403,
        -1.0,
        -0.9999843835830688
      ],
      "type": "VEC3"
    },
    {
      "bufferView": 1,
      "byteOffset": 12956448,
      "componentType": 5126,
      "count": 9848,
      "max": [
        1.0,
        1.0,
        1.0
      ],
      "min": [
        0.0,
        0.20392157137393951,
        0.0
      ],
      "type": "VEC3"
    },
    {
      "bufferView": 0,
      "byteOffset": 8123676,
      "componentType": 5125,
      "count": 57651,
      "type": "SCALAR"
    },
    {
      "bufferView": 1,
      "byteOffset": 13074624,
      "componentType": 5126,
      "count": 8278,
      "max": [
        25747.9375,
        2090.489013671875,
        26386.384765625
      ],
      "min": [
        4298.05859375,
        716.795166015625,
        7110.14208984375
      ],
      "type": "VEC3"
    },
    {
      "bufferView": 1,
      "byteOffset": 13173960,
      "componentType": 5126,
      "count": 8278,
      "max": [
        0.4658503234386444,
        0.9996455311775208,
        0.9998853802680969
      ],
      "min": [
        -0.4658455550670624,
        -1.0,
        -1.0
      ],
      "type": "VEC3"
    },
    {
      "bufferView": 1,
      "byteOffset": 13273296,
      "componentType": 5126,
      "count": 8278,
      "max": [
        0.501960813999176,
        0.501960813999176,
        0.501960813999176
      ],
      "min": [
        0.11372549086809158,
        0.11372549086809158,
        0.11372549086809158
      ],
      "type": "VEC3"
    },
    {
      "bufferView": 0,
      "byteOffset": 8354280,
      "componentType": 5125,
      "count": 47031,
      "type": "SCALAR"
    },
    {
      "bufferView": 1,
      "byteOffset": 13372632,
      "componentType": 5126,
      "count": 9544,
      "max": [
        20509.849609375,
        3102.3125,
        26226.384765625
      ],
      "min": [
        4298.73046875,
        1573.869873046875,
        13713.6015625
      ],
      "type": "VEC3"
    },
    {
      "bufferView": 1,
      "byteOffset": 13487160,
      "componentType": 5126,
      "count": 9544,
      "max": [
        0.07265006005764008,
        1.0,
        0.9334270358085632
      ],
      "min": [
        -0.14625674486160278,
        -1.0,
        -0.8991168141365051
      ],
      "type": "VEC3"
    },
    {
      "bufferView": 1,
      "byteOffset": 13601688,
      "componentType": 5126,
      "count": 9544,
      "max": [
        0.6470588445663452,
        0.6470588445663452,
        0.6470588445663452
      ],
      "min": [
        0.20392157137393951,
        0.20392157137393951,
        0.20392157137393951
      ],
      "type": "VEC3"
    },
    {
      "bufferView": 0,
      "byteOffset": 8542404,
      "componentType": 5125,
      "count": 56397,
      "type": "SCALAR"
    },
    {
      "bufferView": 1,
      "byteOffset": 13716216,
      "componentType": 5126,
      "count": 9327,
      "max": [
        21296.36328125,
        2124.48828125,
        26426.384765625
      ],
      "min": [
        2562.017578125,
        556.795166015625,
        13523.619140625
      ],
      "type": "VEC3"
    },
    {
      "bufferView": 1,
      "byteOffset": 13828140,
      "componentType": 5126,
      "count": 9327,
      "max": [
        1.0,
        1.0,
        0.9994221925735474
      ],
      "min": [
        -0.7344754934310913,
        -0.9999992251396179,
        -1.0
      ],
      "type": "VEC3"
    },
    {
      "bufferView": 1,
      "byteOffset": 13940064,
      "componentType": 5126,
      "count": 9327,
      "max": [
        1.0,
        1.0,
        1.0
      ],
      "min": [
        0.0,
        0.0,
        0.0
      ],
      "type": "VEC3"
    },
    {
      "bufferView": 0,
      "byteOffset": 8767992,
      "componentType": 5125,
      "count": 52803,
      "type": "SCALAR"
    },
    {
      "bufferView": 1,
      "byteOffset": 14051988,
      "componentType": 5126,
      "count": 3760,
      "max": [
        20775.009765625,
        2051.09765625,
        21807.75390625
      ],
      "min": [
        11509.162109375,
        1083.0531005859375,
        16333.12890625
      ],
      "type": "VEC3"
    },
    {
      "bufferView": 1,
      "byteOffset": 14097108,
      "componentType": 5126,
      "count": 3760,
      "max": [
        0.9995533227920532,
        0.4024072289466858,
        0.9991065859794617
      ],
      "min": [
        -0.998802661895752,
        -0.997776448726654,
        -1.0
      ],
      "type": "VEC3"
    },
    {
      "bufferView": 1,
      "byteOffset": 14142228,
      "componentType": 5126,
      "count": 3760,
      "max": [
        0.6470588445663452,
        0.6470588445663452,
        0.6470588445663452
      ],
      "min": [
        0.20392157137393951,
        0.20392157137393951,
        0.20392157137393951
      ],
      "type": "VEC3"
    },
    {
      "bufferView": 0,
      "byteOffset": 8979204,
      "componentType": 5125,
      "count": 21972,
      "type": "SCALAR"
    },
    {
      "bufferView": 1,
      "byteOffset": 14187348,
      "componentType": 5126,
      "count": 8173,
      "max": [
        21413.841796875,
        3102.3125,
        19893.4921875
      ],
      "min": [
        13919.310546875,
        691.795166015625,
        13723.2109375
      ],
      "type": "VEC3"
    },
    {
      "bufferView": 1,
      "byteOffset": 14285424,
      "componentType": 5126,
      "count": 8173,
      "max": [
        1.0,
        1.0,
        0.9988164901733398
      ],
      "min": [
        -1.0,
        -1.0,
        -0.9999895691871643
      ],
      "type": "VEC3"
    },
    {
      "bufferView": 1,
      "byteOffset": 14383500,
      "componentType": 5126,
      "count": 8173,
      "max": [
        0.20392157137393951,
        0.20392157137393951,
        0.20392157137393951
      ],
      "min": [
        0.0,
        0.0,
        0.0
      ],
      "type": "VEC3"
    },
    {
      "bufferView": 0,
      "byteOffset": 9067092,
      "componentType": 5125,
      "count": 47343,
      "type": "SCALAR"
    },
    {
      "bufferView": 1,
      "byteOffset": 14481576,
      "componentType": 5126,
      "count": 11730,
      "max": [
        21413.841796875,
        1196.857421875,
        16453.927734375
      ],
      "min": [
        13919.265625,
        0.0,
        14293.06640625
      ],
      "type": "VEC3"
    },
    {
      "bufferView": 1,
      "byteOffset": 14622336,
      "componentType": 5126,
      "count": 11730,
      "max": [
        0.9184543490409851,
        0.02063230238854885,
        0.9978424906730652
      ],
      "min": [
        -0.9986529350280762,
        -0.9999973773956299,
        -0.9999991655349731
      ],
      "type": "VEC3"
    },
    {
      "bufferView": 1,
      "byteOffset": 14763096,
      "componentType": 5126,
      "count": 11730,
      "max": [
        0.20392157137393951,
        0.20392157137393951,
        0.20392157137393951
      ],
      "min": [
        0.20392157137393951,
        0.20392157137393951,
        0.20392157137393951
      ],
      "type": "VEC3"
    },
    {
      "bufferView": 0,
      "byteOffset": 9256464,
      "componentType": 5125,
      "count": 68448,
      "type": "SCALAR"
    },
    {
      "bufferView": 1,
      "byteOffset": 14903856,
      "componentType": 5126,
      "count": 7211,
      "max": [
        23946.841796875,
        3102.3125,
        26386.384765625
      ],
      "min": [
        8825.25,
        311.4163818359375,
        14038.9384765625
      ],
      "type": "VEC3"
    },
    {
      "bufferView": 1,
      "byteOffset": 14990388,
      "componentType": 5126,
      "count": 7211,
      "max": [
        1.0,
        0.9999983906745911,
        1.0
      ],
      "min": [
        -1.0,
        -1.0,
        -1.0
      ],
      "type": "VEC3"
    },
    {
      "bufferView": 1,
      "byteOffset": 15076920,
      "componentType": 5126,
      "count": 7211,
      "max": [
        1.0,
        0.501960813999176,
        0.501960813999176
      ],
      "min": [
        0.0,
        0.0,
        0.0
      ],
      "type": "VEC3"
    },
    {
      "bufferView": 0,
      "byteOffset": 9530256,
      "componentType": 5125,
      "count": 39639,
      "type": "SCALAR"
    },
    {
      "bufferView": 1,
      "byteOffset": 15163452,
      "componentType": 5126,
      "count": 6068,
      "max": [
        20775.009765625,
        1864.1873779296875,
        20590.947265625
      ],
      "min": [
        12221.552734375,
        556.795166015625,
        15773.1474609375
      ],
      "type": "VEC3"
    },
    {
      "bufferView": 1,
      "byteOffset": 15236268,
      "componentType": 5126,
      "count": 6068,
      "max": [
        1.0,
        1.0,
        1.0
      ],
      "min": [
        -0.9998123645782471,
        -1.0,
        -0.9970349073410034
      ],
      "type": "VEC3"
    },
    {
      "bufferView": 1,
      "byteOffset": 15309084,
      "componentType": 5126,
      "count": 6068,
      "max": [
        0.501960813999176,
        0.501960813999176,
        0.501960813999176
      ],
      "min": [
        0.20392157137393951,
        0.20392157137393951,
        0.20392157137393951
      ],
      "type": "VEC3"
    },
    {
      "bufferView": 0,
      "byteOffset": 9688812,
      "componentType": 5125,
      "count": 34320,
      "type": "SCALAR"
    },
    {
      "bufferView": 1,
      "byteOffset": 15381900,
      "componentType": 5126,
      "count": 9992,
      "max": [
        20705.478515625,
        1864.918701171875,
        26226.384765625
      ],
      "min": [
        2562.017578125,
        2.9854736328125,
        13523.619140625
      ],
      "type": "VEC3"
    },
    {
      "bufferView": 1,
      "byteOffset": 15501804,
      "componentType": 5126,
      "count": 9992,
      "max": [
        1.0,
        1.0,
        0.9985432028770447
      ],
      "min": [
        -1.0,
        -1.0,
        -0.9985364675521851
      ],
      "type": "VEC3"
    },
    {
      "bufferView": 1,
      "byteOffset": 15621708,
      "componentType": 5126,
      "count": 9992,
      "max": [
        0.20392157137393951,
        0.20392157137393951,
        0.20392157137393951
      ],
      "min": [
        0.0,
        0.0,
        0.0
      ],
      "type": "VEC3"
    },
    {
      "bufferView": 0,
      "byteOffset": 9826092,
      "componentType": 5125,
      "count": 55380,
      "type": "SCALAR"
    },
    {
      "bufferView": 1,
      "byteOffset": 15741612,
      "componentType": 5126,
      "count": 9665,
      "max": [
        23946.841796875,
        2124.48828125,
        26426.384765625
      ],
      "min": [
        2562.017578125,
        0.0,
        13523.619140625
      ],
      "type": "VEC3"
    },
    {
      "bufferView": 1,
      "byteOffset": 15857592,
      "componentType": 5126,
      "count": 9665,
      "max": [
        1.0,
        1.0,
        0.9999420642852783
      ],
      "min": [
        -1.0,
        -0.9999999403953552,
        -1.0
      ],
      "type": "VEC3"
    },
    {
      "bufferView": 1,
      "byteOffset": 15973572,
      "componentType": 5126,
      "count": 9665,
      "max": [
        0.501960813999176,
        0.501960813999176,
        0.501960813999176
      ],
      "min": [
        0.0,
        0.0,
        0.0
      ],
      "type": "VEC3"
    },
    {
      "bufferView": 0,
      "byteOffset": 10047612,
      "componentType": 5125,
      "count": 52761,
      "type": "SCALAR"
    },
    {
      "bufferView": 1,
      "byteOffset": 16089552,
      "componentType": 5126,
      "count": 4316,
      "max": [
        15117.2744140625,
        2077.72509765625,
        26386.384765625
      ],
      "min": [
        4148.755859375,
        1064.1873779296875,
        16476.9296875
      ],
      "type": "VEC3"
    },
    {
      "bufferView": 1,
      "byteOffset": 16141344,
      "componentType": 5126,
      "count": 4316,
      "max": [
        1.0,
        0.9999992847442627,
        0.9985432028770447
      ],
      "min": [
        -0.9726475477218628,
        -0.999262809753418,
        -0.9999603629112244
      ],
      "type": "VEC3"
    },
    {
      "bufferView": 1,
      "byteOffset": 16193136,
      "componentType": 5126,
      "count": 4316,
      "max": [
        0.501960813999176,
        0.501960813999176,
        0.501960813999176
      ],
      "min": [
        0.11372549086809158,
        0.11372549086809158,
        0.11372549086809158
      ],
      "type": "VEC3"
    },
    {
      "bufferView": 0,
      "byteOffset": 10258656,
      "componentType": 5125,
      "count": 24204,
      "type": "SCALAR"
    },
    {
      "bufferView": 1,
      "byteOffset": 16244928,
      "componentType": 5126,
      "count": 12703,
      "max": [
        13919.31640625,
        1442.137451171875,
        16571.546875
      ],
      "min": [
        7013.841796875,
        40.810546875,
        14176.4189453125
      ],
      "type": "VEC3"
    },
    {
      "bufferView": 1,
      "byteOffset": 16397364,
      "componentType": 5126,
      "count": 12703,
      "max": [
        0.5700206160545349,
        0.027867913246154785,
        0.9975525736808777
      ],
      "min": [
        -0.5495627522468567,
        -0.9998478293418884,
        -0.9999889135360718
      ],
      "type": "VEC3"
    },
    {
      "bufferView": 1,
      "byteOffset": 16549800,
      "componentType": 5126,
      "count": 12703,
      "max": [
        0.6470588445663452,
        0.6470588445663452,
        0.6470588445663452
      ],
      "min": [
        0.6470588445663452,
        0.6470588445663452,
        0.6470588445663452
      ],
      "type": "VEC3"
    },
    {
      "bufferView": 0,
      "byteOffset": 10355472,
      "componentType": 5125,
      "count": 74952,
      "type": "SCALAR"
    },
    {
      "bufferView": 1,
      "byteOffset": 16702236,
      "componentType": 5126,
      "count": 2093,
      "max": [
        35088.30078125,
        1864.1873779296875,
        19700.947265625
      ],
      "min": [
        7013.841796875,
        878.15234375,
        13526.619140625
      ],
      "type": "VEC3"
    },
    {
      "bufferView": 1,
      "byteOffset": 16727352,
      "componentType": 5126,
      "count": 2093,
      "max": [
        1.0,
        0.9997627139091492,
        0.9985432028770447
      ],
      "min": [
        -0.0878167599439621,
        -0.7935829758644104,
        -0.9985364675521851
      ],
      "type": "VEC3"
    },
    {
      "bufferView": 1,
      "byteOffset": 16752468,
      "componentType": 5126,
      "count": 2093,
      "max": [
        0.7529411911964417,
        0.7529411911964417,
        0.7529411911964417
      ],
      "min": [
        0.0,
        0.0,
        0.0
      ],
      "type": "VEC3"
    },
    {
      "bufferView": 0,
      "byteOffset": 10655280,
      "componentType": 5125,
      "count": 11103,
      "type": "SCALAR"
    }
  ],
  "asset": {
    "extras": {
      "author": "3D Crafty (https://sketchfab.com/3DCrafty)",
      "license": "CC-BY-NC-ND-4.0 (http://creativecommons.org/licenses/by-nc-nd/4.0/)",
      "source": "https://sketchfab.com/3d-models/su-30-mki-d320a578ff8e44eba8fd3f111d1d1dba",
      "title": "Su-30 MKI"
    },
    "generator": "Sketchfab-12.67.0",
    "version": "2.0"
  },
  "bufferViews": [
    {
      "buffer": 0,
      "byteLength": 10699692,
      "name": "floatBufferViews",
      "target": 34963
    },
    {
      "buffer": 0,
      "byteLength": 16777584,
      "byteOffset": 10699692,
      "byteStride": 12,
      "name": "floatBufferViews",
      "target": 34962
    }
  ],
  "buffers": [
    {
      "byteLength": 27477276,
      "uri": "scene.bin"
    }
  ],
  "materials": [
    {
      "doubleSided": true,
      "name": "Scene_-_Root",
      "pbrMetallicRoughness": {
        "baseColorFactor": [
          0.5436991714849705,
          0.5436991714849705,
          0.5436991714849705,
          1.0
        ],
        "roughnessFactor": 0.45
      }
    }
  ],
  "meshes": [
    {
      "name": "Object_0",
      "primitives": [
        {
          "attributes": {
            "COLOR_0": 2,
            "NORMAL": 1,
            "POSITION": 0
          },
          "indices": 3,
          "material": 0,
          "mode": 4
        }
      ]
    },
    {
      "name": "Object_1",
      "primitives": [
        {
          "attributes": {
            "COLOR_0": 6,
            "NORMAL": 5,
            "POSITION": 4
          },
          "indices": 7,
          "material": 0,
          "mode": 4
        }
      ]
    },
    {
      "name": "Object_2",
      "primitives": [
        {
          "attributes": {
            "COLOR_0": 10,
            "NORMAL": 9,
            "POSITION": 8
          },
          "indices": 11,
          "material": 0,
          "mode": 4
        }
      ]
    },
    {
      "name": "Object_3",
      "primitives": [
        {
          "attributes": {
            "COLOR_0": 14,
            "NORMAL": 13,
            "POSITION": 12
          },
          "indices": 15,
          "material": 0,
          "mode": 4
        }
      ]
    },
    {
      "name": "Object_4",
      "primitives": [
        {
          "attributes": {
            "COLOR_0": 18,
            "NORMAL": 17,
            "POSITION": 16
          },
          "indices": 19,
          "material": 0,
          "mode": 4
        }
      ]
    },
    {
      "name": "Object_5",
      "primitives": [
        {
          "attributes": {
            "COLOR_0": 22,
            "NORMAL": 21,
            "POSITION": 20
          },
          "indices": 23,
          "material": 0,
          "mode": 4
        }
      ]
    },
    {
      "name": "Object_6",
      "primitives": [
        {
          "attributes": {
            "COLOR_0": 26,
            "NORMAL": 25,
            "POSITION": 24
          },
          "indices": 27,
          "material": 0,
          "mode": 4
        }
      ]
    },
    {
      "name": "Object_7",
      "primitives": [
        {
          "attributes": {
            "COLOR_0": 30,
            "NORMAL": 29,
            "POSITION": 28
          },
          "indices": 31,
          "material": 0,
          "mode": 4
        }
      ]
    },
    {
      "name": "Object_8",
      "primitives": [
        {
          "attributes": {
            "COLOR_0": 34,
            "NORMAL": 33,
            "POSITION": 32
          },
          "indices": 35,
          "material": 0,
          "mode": 4
        }
      ]
    },
    {
      "name": "Object_9",
      "primitives": [
        {
          "attributes": {
            "COLOR_0": 38,
            "NORMAL": 37,
            "POSITION": 36
          },
          "indices": 39,
          "material": 0,
          "mode": 4
        }
      ]
    },
    {
      "name": "Object_10",
      "primitives": [
        {
          "attributes": {
            "COLOR_0": 42,
            "NORMAL": 41,
            "POSITION": 40
          },
          "indices": 43,
          "material": 0,
          "mode": 4
        }
      ]
    },
    {
      "name": "Object_11",
      "primitives": [
        {
          "attributes": {
            "COLOR_0": 46,
            "NORMAL": 45,
            "POSITION": 44
          },
          "indices": 47,
          "material": 0,
          "mode": 4
        }
      ]
    },
    {
      "name": "Object_12",
      "primitives": [
        {
          "attributes": {
            "COLOR_0": 50,
            "NORMAL": 49,
            "POSITION": 48
          },
          "indices": 51,
          "material": 0,
          "mode": 4
        }
      ]
    },
    {
      "name": "Object_13",
      "primitives": [
        {
          "attributes": {
            "COLOR_0": 54,
            "NORMAL": 53,
            "POSITION": 52
          },
          "indices": 55,
          "material": 0,
          "mode": 4
        }
      ]
    },
    {
      "name": "Object_14",
      "primitives": [
        {
          "attributes": {
            "COLOR_0": 58,
            "NORMAL": 57,
            "POSITION": 56
          },
          "indices": 59,
          "material": 0,
          "mode": 4
        }
      ]
    },
    {
      "name": "Object_15",
      "primitives": [
        {
          "attributes": {
            "COLOR_0": 62,
            "NORMAL": 61,
            "POSITION": 60
          },
          "indices": 63,
          "material": 0,
          "mode": 4
        }
      ]
    },
    {
      "name": "Object_16",
      "primitives": [
        {
          "attributes": {
            "COLOR_0": 66,
            "NORMAL": 65,
            "POSITION": 64
          },
          "indices": 67,
          "material": 0,
          "mode": 4
        }
      ]
    },
    {
      "name": "Object_17",
      "primitives": [
        {
          "attributes": {
            "COLOR_0": 70,
            "NORMAL": 69,
            "POSITION": 68
          },
          "indices": 71,
          "material": 0,
          "mode": 4
        }
      ]
    },
    {
      "name": "Object_18",
      "primitives": [
        {
          "attributes": {
            "COLOR_0": 74,
            "NORMAL": 73,
            "POSITION": 72
          },
          "indices": 75,
          "material": 0,
          "mode": 4
        }
      ]
    },
    {
      "name": "Object_19",
      "primitives": [
        {
          "attributes": {
            "COLOR_0": 78,
            "NORMAL": 77,
            "POSITION": 76
          },
          "indices": 79,
          "material": 0,
          "mode": 4
        }
      ]
    },
    {
      "name": "Object_20",
      "primitives": [
        {
          "attributes": {
            "COLOR_0": 82,
            "NORMAL": 81,
            "POSITION": 80
          },
          "indices": 83,
          "material": 0,
          "mode": 4
        }
      ]
    },
    {
      "name": "Object_21",
      "primitives": [
        {
          "attributes": {
            "COLOR_0": 86,
            "NORMAL": 85,
            "POSITION": 84
          },
          "indices": 87,
          "material": 0,
          "mode": 4
        }
      ]
    },
    {
      "name": "Object_22",
      "primitives": [
        {
          "attributes": {
            "COLOR_0": 90,
            "NORMAL": 89,
            "POSITION": 88
          },
          "indices": 91,
          "material": 0,
          "mode": 4
        }
      ]
    },
    {
      "name": "Object_23",
      "primitives": [
        {
          "attributes": {
            "COLOR_0": 94,
            "NORMAL": 93,
            "POSITION": 92
          },
          "indices": 95,
          "material": 0,
          "mode": 4
        }
      ]
    },
    {
      "name": "Object_24",
      "primitives": [
        {
          "attributes": {
            "COLOR_0": 98,
            "NORMAL": 97,
            "POSITION": 96
          },
          "indices": 99,
          "material": 0,
          "mode": 4
        }
      ]
    },
    {
      "name": "Object_25",
      "primitives": [
        {
          "attributes": {
            "COLOR_0": 102,
            "NORMAL": 101,
            "POSITION": 100
          },
          "indices": 103,
          "material": 0,
          "mode": 4
        }
      ]
    },
    {
      "name": "Object_26",
      "primitives": [
        {
          "attributes": {
            "COLOR_0": 106,
            "NORMAL": 105,
            "POSITION": 104
          },
          "indices": 107,
          "material": 0,
          "mode": 4
        }
      ]
    },
    {
      "name": "Object_27",
      "primitives": [
        {
          "attributes": {
            "COLOR_0": 110,
            "NORMAL": 109,
            "POSITION": 108
          },
          "indices": 111,
          "material": 0,
          "mode": 4
        }
      ]
    },
    {
      "name": "Object_28",
      "primitives": [
        {
          "attributes": {
            "COLOR_0": 114,
            "NORMAL": 113,
            "POSITION": 112
          },
          "indices": 115,
          "material": 0,
          "mode": 4
        }
      ]
    },
    {
      "name": "Object_29",
      "primitives": [
        {
          "attributes": {
            "COLOR_0": 118,
            "NORMAL": 117,
            "POSITION": 116
          },
          "indices": 119,
          "material": 0,
          "mode": 4
        }
      ]
    },
    {
      "name": "Object_30",
      "primitives": [
        {
          "attributes": {
            "COLOR_0": 122,
            "NORMAL": 121,
            "POSITION": 120
          },
          "indices": 123,
          "material": 0,
          "mode": 4
        }
      ]
    },
    {
      "name": "Object_31",
      "primitives": [
        {
          "attributes": {
            "COLOR_0": 126,
            "NORMAL": 125,
            "POSITION": 124
          },
          "indices": 127,
          "material": 0,
          "mode": 4
        }
      ]
    },
    {
      "name": "Object_32",
      "primitives": [
        {
          "attributes": {
            "COLOR_0": 130,
            "NORMAL": 129,
            "POSITION": 128
          },
          "indices": 131,
          "material": 0,
          "mode": 4
        }
      ]
    },
    {
      "name": "Object_33",
      "primitives": [
        {
          "attributes": {
            "COLOR_0": 134,
            "NORMAL": 133,
            "POSITION": 132
          },
          "indices": 135,
          "material": 0,
          "mode": 4
        }
      ]
    },
    {
      "name": "Object_34",
      "primitives": [
        {
          "attributes": {
            "COLOR_0": 138,
            "NORMAL": 137,
            "POSITION": 136
          },
          "indices": 139,
          "material": 0,
          "mode": 4
        }
      ]
    },
    {
      "name": "Object_35",
      "primitives": [
        {
          "attributes": {
            "COLOR_0": 142,
            "NORMAL": 141,
            "POSITION": 140
          },
          "indices": 143,
          "material": 0,
          "mode": 4
        }
      ]
    },
    {
      "name": "Object_36",
      "primitives": [
        {
          "attributes": {
            "COLOR_0": 146,
            "NORMAL": 145,
            "POSITION": 144
          },
          "indices": 147,
          "material": 0,
          "mode": 4
        }
      ]
    },
    {
      "name": "Object_37",
      "primitives": [
        {
          "attributes": {
            "COLOR_0": 150,
            "NORMAL": 149,
            "POSITION": 148
          },
          "indices": 151,
          "material": 0,
          "mode": 4
        }
      ]
    },
    {
      "name": "Object_38",
      "primitives": [
        {
          "attributes": {
            "COLOR_0": 154,
            "NORMAL": 153,
            "POSITION": 152
          },
          "indices": 155,
          "material": 0,
          "mode": 4
        }
      ]
    },
    {
      "name": "Object_39",
      "primitives": [
        {
          "attributes": {
            "COLOR_0": 158,
            "NORMAL": 157,
            "POSITION": 156
          },
          "indices": 159,
          "material": 0,
          "mode": 4
        }
      ]
    },
    {
      "name": "Object_40",
      "primitives": [
        {
          "attributes": {
            "COLOR_0": 162,
            "NORMAL": 161,
            "POSITION": 160
          },
          "indices": 163,
          "material": 0,
          "mode": 4
        }
      ]
    },
    {
      "name": "Object_41",
      "primitives": [
        {
          "attributes": {
            "COLOR_0": 166,
            "NORMAL": 165,
            "POSITION": 164
          },
          "indices": 167,
          "material": 0,
          "mode": 4
        }
      ]
    },
    {
      "name": "Object_42",
      "primitives": [
        {
          "attributes": {
            "COLOR_0": 170,
            "NORMAL": 169,
            "POSITION": 168
          },
          "indices": 171,
          "material": 0,
          "mode": 4
        }
      ]
    },
    {
      "name": "Object_43",
      "primitives": [
        {
          "attributes": {
            "COLOR_0": 174,
            "NORMAL": 173,
            "POSITION": 172
          },
          "indices": 175,
          "material": 0,
          "mode": 4
        }
      ]
    },
    {
      "name": "Object_44",
      "primitives": [
        {
          "attributes": {
            "COLOR_0": 178,
            "NORMAL": 177,
            "POSITION": 176
          },
          "indices": 179,
          "material": 0,
          "mode": 4
        }
      ]
    },
    {
      "name": "Object_45",
      "primitives": [
        {
          "attributes": {
            "COLOR_0": 182,
            "NORMAL": 181,
            "POSITION": 180
          },
          "indices": 183,
          "material": 0,
          "mode": 4
        }
      ]
    },
    {
      "name": "Object_46",
      "primitives": [
        {
          "attributes": {
            "COLOR_0": 186,
            "NORMAL": 185,
            "POSITION": 184
          },
          "indices": 187,
          "material": 0,
          "mode": 4
        }
      ]
    },
    {
      "name": "Object_47",
      "primitives": [
        {
          "attributes": {
            "COLOR_0": 190,
            "NORMAL": 189,
            "POSITION": 188
          },
          "indices": 191,
          "material": 0,
          "mode": 4
        }
      ]
    },
    {
      "name": "Object_48",
      "primitives": [
        {
          "attributes": {
            "COLOR_0": 194,
            "NORMAL": 193,
            "POSITION": 192
          },
          "indices": 195,
          "material": 0,
          "mode": 4
        }
      ]
    },
    {
      "name": "Object_49",
      "primitives": [
        {
          "attributes": {
            "COLOR_0": 198,
            "NORMAL": 197,
            "POSITION": 196
          },
          "indices": 199,
          "material": 0,
          "mode": 4
        }
      ]
    },
    {
      "name": "Object_50",
      "primitives": [
        {
          "attributes": {
            "COLOR_0": 202,
            "NORMAL": 201,
            "POSITION": 200
          },
          "indices": 203,
          "material": 0,
          "mode": 4
        }
      ]
    },
    {
      "name": "Object_51",
      "primitives": [
        {
          "attributes": {
            "COLOR_0": 206,
            "NORMAL": 205,
            "POSITION": 204
          },
          "indices": 207,
          "material": 0,
          "mode": 4
        }
      ]
    },
    {
      "name": "Object_52",
      "primitives": [
        {
          "attributes": {
            "COLOR_0": 210,
            "NORMAL": 209,
            "POSITION": 208
          },
          "indices": 211,
          "material": 0,
          "mode": 4
        }
      ]
    },
    {
      "name": "Object_53",
      "primitives": [
        {
          "attributes": {
            "COLOR_0": 214,
            "NORMAL": 213,
            "POSITION": 212
          },
          "indices": 215,
          "material": 0,
          "mode": 4
        }
      ]
    }
  ],
  "nodes": [
    {
      "children": [
        1
      ],
      "matrix": [
        -1.0,
        -2.832769343194e-16,
        3.8285688045569397e-16,
        0.0,
        -2.832769343193999e-16,
        1.0,
        0.0,
        0.0,
        -3.82856880455694e-16,
        0.0,
        -1.0,
        0.0,
        -602.2047119140625,
        -1568.0085449218745,
        -1568.0085449218755,
        1.0
      ],
      "name": "Sketchfab_model"
    },
    {
      "children": [
        2,
        3,
        4,
        5,
        6,
        7,
        8,
        9,
        10,
        11,
        12,
        13,
        14,
        15,
        16,
        17,
        18,
        19,
        20,
        21,
        22,
        23,
        24,
        25,
        26,
        27,
        28,
        29,
        30,
        31,
        32,
        33,
        34,
        35,
        36,
        37,
        38,
        39,
        40,
        41,
        42,
        43,
        44,
        45,
        46,
        47,
        48,
        49,
        50,
        51,
        52,
        53,
        54,
        55
      ],
      "matrix": [
        1.0,
        0.0,
        0.0,
        0.0,
        0.0,
        1.0,
        0.0,
        0.0,
        0.0,
        0.0,
        1.0,
        0.0,
        -21413.841796875,
        -1764.1873779296875,
        -13213.1923828125,
        1.0
      ],
      "name": "skfb_offset"
    },
    {
      "mesh": 0,
      "name": "Object_2"
    },
    {
      "mesh": 1,
      "name": "Object_3"
    },
    {
      "mesh": 2,
      "name": "Object_4"
    },
    {
      "mesh": 3,
      "name": "Object_5"
    },
    {
      "mesh": 4,
      "name": "Object_6"
    },
    {
      "mesh": 5,
      "name": "Object_7"
    },
    {
      "mesh": 6,
      "name": "Object_8"
    },
    {
      "mesh": 7,
      "name": "Object_9"
    },
    {
      "mesh": 8,
      "name": "Object_10"
    },
    {
      "mesh": 9,
      "name": "Object_11"
    },
    {
      "mesh": 10,
      "name": "Object_12"
    },
    {
      "mesh": 11,
      "name": "Object_13"
    },
    {
      "mesh": 12,
      "name": "Object_14"
    },
    {
      "mesh": 13,
      "name": "Object_15"
    },
    {
      "mesh": 14,
      "name": "Object_16"
    },
    {
      "mesh": 15,
      "name": "Object_17"
    },
    {
      "mesh": 16,
      "name": "Object_18"
    },
    {
      "mesh": 17,
      "name": "Object_19"
    },
    {
      "mesh": 18,
      "name": "Object_20"
    },
    {
      "mesh": 19,
      "name": "Object_21"
    },
    {
      "mesh": 20,
      "name": "Object_22"
    },
    {
      "mesh": 21,
      "name": "Object_23"
    },
    {
      "mesh": 22,
      "name": "Object_24"
    },
    {
      "mesh": 23,
      "name": "Object_25"
    },
    {
      "mesh": 24,
      "name": "Object_26"
    },
    {
      "mesh": 25,
      "name": "Object_27"
    },
    {
      "mesh": 26,
      "name": "Object_28"
    },
    {
      "mesh": 27,
      "name": "Object_29"
    },
    {
      "mesh": 28,
      "name": "Object_30"
    },
    {
      "mesh": 29,
      "name": "Object_31"
    },
    {
      "mesh": 30,
      "name": "Object_32"
    },
    {
      "mesh": 31,
      "name": "Object_33"
    },
    {
      "mesh": 32,
      "name": "Object_34"
    },
    {
      "mesh": 33,
      "name": "Object_35"
    },
    {
      "mesh": 34,
      "name": "Object_36"
    },
    {
      "mesh": 35,
      "name": "Object_37"
    },
    {
      "mesh": 36,
      "name": "Object_38"
    },
    {
      "mesh": 37,
      "name": "Object_39"
    },
    {
      "mesh": 38,
      "name": "Object_40"
    },
    {
      "mesh": 39,
      "name": "Object_41"
    },
    {
      "mesh": 40,
      "name": "Object_42"
    },
    {
      "mesh": 41,
      "name": "Object_43"
    },
    {
      "mesh": 42,
      "name": "Object_44"
    },
    {
      "mesh": 43,
      "name": "Object_45"
    },
    {
      "mesh": 44,
      "name": "Object_46"
    },
    {
      "mesh": 45,
      "name": "Object_47"
    },
    {
      "mesh": 46,
      "name": "Object_48"
    },
    {
      "mesh": 47,
      "name": "Object_49"
    },
    {
      "mesh": 48,
      "name": "Object_50"
    },
    {
      "mesh": 49,
      "name": "Object_51"
    },
    {
      "mesh": 50,
      "name": "Object_52"
    },
    {
      "mesh": 51,
      "name": "Object_53"
    },
    {
      "mesh": 52,
      "name": "Object_54"
    },
    {
      "mesh": 53,
      "name": "Object_55"
    }
  ],
  "scene": 0,
  "scenes": [
    {
      "name": "Sketchfab_Scene",
      "nodes": [
        0
      ]
    }
  ]
}
