{
	"asset":{
		"generator":"Khronos glTF Blender I/O v5.0.21",
		"version":"2.0"
	},
	"scene":0,
	"scenes":[
		{
			"name":"Scene",
			"nodes":[
				2
			]
		}
	],
	"nodes":[
		{
			"mesh":0,
			"name":"Object_2",
			"rotation":[
				-0.5,
				0.5,
				0.5,
				0.5
			],
			"translation":[
				3.700000047683716,
				0,
				0
			]
		},
		{
			"children":[
				0
			],
			"name":"Missle.obj.cleaner.materialmerger.gles"
		},
		{
			"children":[
				1
			],
			"name":"Sketchfab_model",
			"rotation":[
				-0.7071066498756409,
				0,
				0,
				0.70710688829422
			]
		}
	],
	"materials":[
		{
			"doubleSided":true,
			"emissiveFactor":[
				1,
				1,
				1
			],
			"emissiveTexture":{
				"index":0
			},
			"name":"None",
			"occlusionTexture":{
				"index":1
			},
			"pbrMetallicRoughness":{
				"baseColorTexture":{
					"index":2
				},
				"metallicRoughnessTexture":{
					"index":1
				},
				"roughnessFactor":0.8448485136032104
			}
		}
	],
	"meshes":[
		{
			"name":"Object_0",
			"primitives":[
				{
					"attributes":{
						"POSITION":0,
						"NORMAL":1,
						"TEXCOORD_0":2
					},
					"indices":3,
					"material":0
				}
			]
		}
	],
	"textures":[
		{
			"sampler":0,
			"source":0
		},
		{
			"sampler":0,
			"source":1
		},
		{
			"sampler":0,
			"source":2
		}
	],
	"images":[
		{
			"mimeType":"image/png",
			"name":"None_emissive",
			"uri":"None_emissive.png"
		},
		{
			"mimeType":"image/png",
			"name":"None_metallicRoughness",
			"uri":"None_metallicRoughness.png"
		},
		{
			"mimeType":"image/png",
			"name":"None_baseColor",
			"uri":"None_baseColor.png"
		}
	],
	"accessors":[
		{
			"bufferView":0,
			"componentType":5126,
			"count":1192,
			"max":[
				0.6511449813842773,
				3.837860107421875,
				0.6511449813842773
			],
			"min":[
				-0.6511449813842773,
				-3.837860107421875,
				-0.6511449813842773
			],
			"type":"VEC3"
		},
		{
			"bufferView":1,
			"componentType":5126,
			"count":1192,
			"type":"VEC3"
		},
		{
			"bufferView":2,
			"componentType":5126,
			"count":1192,
			"type":"VEC2"
		},
		{
			"bufferView":3,
			"componentType":5123,
			"count":2922,
			"type":"SCALAR"
		}
	],
	"bufferViews":[
		{
			"buffer":0,
			"byteLength":14304,
			"byteOffset":0,
			"target":34962
		},
		{
			"buffer":0,
			"byteLength":14304,
			"byteOffset":14304,
			"target":34962
		},
		{
			"buffer":0,
			"byteLength":9536,
			"byteOffset":28608,
			"target":34962
		},
		{
			"buffer":0,
			"byteLength":5844,
			"byteOffset":38144,
			"target":34963
		}
	],
	"samplers":[
		{
			"magFilter":9729,
			"minFilter":9987
		}
	],
	"buffers":[
		{
			"byteLength":43988,
			"uri":"scene.bin"
		}
	]
}
