mtllib boom.mtl
o Object_0.002
v 0.000272 8.62969 3.59234
v 0.000199 8.62969 3.59224
v 0 6.8933 3.59246
v 9.2e-05 8.62969 3.59218
v -3.1e-05 8.62969 3.59216
v -0.000145 8.62969 3.59221
v -0.000229 8.62969 3.59229
v -0.000277 8.62969 3.5924
v -0.000277 8.62969 3.59252
v -0.00023 8.62969 3.59263
v 0 6.8933 3.59246
v -0.00023 8.62969 3.59263
v 8.8e-05 8.62969 3.59273
v 8.8e-05 8.62969 3.59273
v 0.00019 8.62969 3.59267
v 0.000259 8.62969 3.59258
v 0.000291 8.62969 3.59246
vt 0.149647 0.282159
vt 0.111001 0.310207
vt 0.195633 0.386238
vt 0.087469 0.351197
vt 0.082503 0.398162
vt 0.099451 0.44174
vt 0.131943 0.473996
vt 0.173287 0.492384
vt 0.218194 0.492384
vt 0.259322 0.474072
vt 0.195633 0.386238
vt 0.259322 0.474072
vt 0.298831 0.352544
vt 0.298831 0.352544
vt 0.276378 0.313528
vt 0.239892 0.287015
vt 0.195741 0.27501
vn -0.923791 0.000199998 0.382896
vn -0.669241 0.000200012 0.743045
vn 0 1 0
vn -0.306009 0.000200006 0.952029
vn 0.129707 0.000200011 0.991552
vn 0.545807 0.000200003 0.837911
vn 0.825579 0.000199995 0.564286
vn 0.978001 0.0002 0.2086
vn 0.978888 0.000199998 -0.204397
vn 0.916943 0.000200009 -0.399019
vn 0.308116 0.000100005 -0.951349
vn 0.308116 0.000100005 -0.951349
vn 0.308116 0.000100005 -0.951349
vn -0.501525 0.00020001 -0.865143
vn -0.669401 0.0002 -0.742901
vn -0.90124 0.000200009 -0.433319
vn -0.998486 0.000199997 -0.0549993
usemtl blinn1SG.001
s off
f 1/1/1 2/2/2 3/3/3
f 2/2/2 4/4/4 3/3/3
f 4/4/4 5/5/5 3/3/3
f 5/5/5 6/6/6 3/3/3
f 6/6/6 7/7/7 3/3/3
f 7/7/7 8/8/8 3/3/3
f 8/8/8 9/9/9 3/3/3
f 9/9/9 10/10/10 3/3/3
f 11/11/11 12/12/12 13/13/13
f 14/14/14 15/15/15 3/3/3
f 15/15/15 16/16/16 3/3/3
f 16/16/16 17/17/17 3/3/3
f 17/17/17 1/1/1 3/3/3

o Object_1.001
v 0.567029 -24.478 -0.603957
v 0.774149 -24.478 -0.31888
v 3.82219e-07 -24.478 0.0257924
v 0.261865 -24.478 -0.780143
v -0.0885786 -24.478 -0.816977
v -0.423706 -24.478 -0.708088
v -0.68557 -24.478 -0.472304
v -0.828894 -24.478 -0.150393
v -0.828894 -24.478 0.201979
v -0.685571 -24.478 0.523889
v -0.423706 -24.478 0.759672
v -0.0885776 -24.478 0.868562
v 0.261865 -24.478 0.831729
v 0.567029 -24.478 0.655542
v 0.774149 -24.478 0.370466
v 0.847412 -24.478 0.0257933
v 1.46518 -24.3021 -0.626545
v 1.07317 -24.3021 -1.16609
v 2.051 -23.8012 -0.887371
v 1.50226 -23.8012 -1.64264
v 2.57989 -22.1673 -1.12285
v 2.44244 -23.0516 -1.06165
v 1.78897 -23.0516 -1.96106
v 1.88965 -22.1673 -2.07288
v 2.44244 -23.0516 -1.06165
v 1.78897 -23.0516 -1.96106
v 0.495612 -24.3021 -1.49954
v 0.693774 -23.8012 -2.10942
v 0.826182 -23.0516 -2.51693
v 0.872677 -22.1673 -2.66003
v 0.826182 -23.0516 -2.51693
v -0.167646 -24.3021 -1.56925
v -0.234676 -23.8012 -2.20701
v -0.279465 -23.0516 -2.63314
v -0.295192 -22.1673 -2.78278
v -0.279465 -23.0516 -2.63314
v -0.801916 -24.3021 -1.36317
v -1.12255 -23.8012 -1.91852
v -0.295192 -22.1673 -2.78278
v -0.279465 -23.0516 -2.63314
v -1.33679 -23.0516 -2.28959
v -1.41202 -22.1673 -2.4199
v -1.33679 -23.0516 -2.28959
v -1.29753 -24.3021 -0.916917
v -1.81632 -23.8012 -1.29384
v -2.16297 -23.0516 -1.5457
v -2.2847 -22.1673 -1.63414
v -2.16297 -23.0516 -1.5457
v -1.56879 -24.3021 -0.307662
v -2.19604 -23.8012 -0.440989
v -2.61515 -23.0516 -0.530076
v -2.76233 -22.1673 -0.561359
v -2.61515 -23.0516 -0.530076
v -1.56879 -24.3021 0.359248
v -2.19604 -23.8012 0.492574
v -2.61515 -23.0516 0.58166
v -2.76233 -22.1673 0.612943
v -2.61515 -23.0516 0.58166
v -1.29753 -24.3021 0.968503
v -1.81632 -23.8012 1.34543
v -2.16297 -23.0516 1.59728
v -2.2847 -22.1673 1.68572
v -2.16297 -23.0516 1.59728
v -0.801917 -24.3021 1.41475
v -1.12255 -23.8012 1.97011
v -1.33679 -23.0516 2.34118
v -1.41202 -22.1673 2.47148
v -1.33679 -23.0516 2.34118
v -0.167646 -24.3021 1.62084
v -0.234677 -23.8012 2.25859
v -0.279465 -23.0516 2.68473
v -0.295193 -22.1673 2.83436
v -0.279465 -23.0516 2.68473
v 0.495612 -24.3021 1.55113
v 0.693774 -23.8012 2.16101
v 0.826181 -23.0516 2.56852
v 0.872677 -22.1673 2.71162
v 0.826181 -23.0516 2.56852
v 1.07317 -24.3021 1.21767
v 1.50226 -23.8012 1.69423
v 1.78897 -23.0516 2.01265
v 1.88965 -22.1673 2.12447
v 1.78897 -23.0516 2.01265
v 1.46518 -24.3021 0.678132
v 2.051 -23.8012 0.938957
v 2.44244 -23.0516 1.11324
v 2.57989 -22.1673 1.17443
v 2.44244 -23.0516 1.11324
v 1.60383 -24.3021 0.0257933
v 2.2451 -23.8012 0.0257933
v 2.67358 -23.0516 0.0257924
v 2.82404 -22.1673 0.0257924
v 2.67358 -23.0516 0.0257924
v 1.88965 -9.80776 -2.07288
v 2.57989 -9.80776 -1.12285
v 0.872677 -9.80776 -2.66003
v -0.295192 -9.80776 -2.78278
v -1.41202 -9.80777 -2.4199
v -0.295192 -9.80776 -2.78278
v -2.2847 -9.80774 -1.63414
v -2.76233 -9.80774 -0.561359
v -2.76233 -9.80774 0.612943
v -2.2847 -9.80774 1.68572
v -1.41202 -9.80774 2.47148
v -0.295193 -9.80774 2.83436
v 0.872677 -9.80774 2.71162
v 1.88965 -9.80774 2.12447
v 2.57989 -9.80774 1.17443
v 2.82404 -9.80773 0.0257924
v 2.23429 -8.15724 -0.968976
v 1.63652 -8.15724 -1.79174
v 1.29008 -5.21258 -0.548589
v 2.23429 -8.15724 -0.968976
v 1.63652 -8.15724 -1.79174
v 0.944927 -5.21258 -1.02365
v 0.755773 -8.15724 -2.30024
v 0.755773 -8.15724 -2.30024
v 0.436385 -5.21258 -1.31726
v -0.255648 -8.15724 -2.40654
v -0.255648 -8.15724 -2.40654
v -0.147612 -5.21258 -1.37864
v -0.255648 -8.15724 -2.40654
v -1.22286 -8.15724 -2.09227
v -1.22286 -8.15724 -2.09227
v -0.706084 -5.21258 -1.19718
v -1.97864 -8.15722 -1.41177
v -1.97864 -8.15722 -1.41177
v -1.14246 -5.21257 -0.804255
v -2.39228 -8.15722 -0.482702
v -2.39228 -8.15722 -0.482702
v -1.3813 -5.21257 -0.267812
v -2.39228 -8.15722 0.534288
v -2.39228 -8.15722 0.534288
v -1.3813 -5.21257 0.319397
v -1.97864 -8.15722 1.46336
v -1.97864 -8.15722 1.46336
v -1.14246 -5.21257 0.85584
v -1.22286 -8.15722 2.14386
v -1.22286 -8.15722 2.14386
v -0.706081 -5.21257 1.24876
v -0.255648 -8.15722 2.45812
v -0.255648 -8.15722 2.45812
v -0.147611 -5.21257 1.43022
v 0.755772 -8.15722 2.35182
v 0.755772 -8.15722 2.35182
v 0.436382 -5.21257 1.36884
v 1.63651 -8.15722 1.84332
v 1.63651 -8.15722 1.84332
v 0.944921 -5.21257 1.07523
v 2.23429 -8.15722 1.02056
v 2.23429 -8.15722 1.02056
v 1.29008 -5.21257 0.600172
v 2.44573 -8.15722 0.0257924
v 2.44573 -8.15722 0.0257924
v 1.41217 -5.21257 0.0257933
v 0.765705 -0.949681 -0.315165
v 1.28225 -1.39195 -0.540967
v 0.941703 -1.39195 -1.00969
v 0.560863 -0.949681 -0.5971
v 0.439928 -1.39195 -1.29939
v 0.259006 -0.949681 -0.771376
v -0.136293 -1.39194 -1.35994
v -0.0876256 -0.949677 -0.8078
v -0.687312 -1.39195 -1.18091
v -0.419072 -0.949683 -0.700106
v -1.11787 -1.39193 -0.793212
v -0.678068 -0.94967 -0.466875
v -1.35354 -1.39193 -0.26391
v -0.819835 -0.949674 -0.148467
v -1.35354 -1.39193 0.315478
v -0.819838 -0.949674 0.200049
v -1.11788 -1.39193 0.844773
v -0.678076 -0.949672 0.518445
v -0.687318 -1.39193 1.23246
v -0.419074 -0.949674 0.751653
v -0.136294 -1.39193 1.4115
v -0.0876176 -0.94967 0.859349
v 0.439921 -1.39193 1.35094
v 0.259013 -0.949674 0.822918
v 0.941688 -1.39193 1.06124
v 0.560816 -0.949672 0.648668
v 1.28225 -1.39193 0.59251
v 0.765686 -0.949674 0.366704
v 1.40271 -1.39193 0.0257773
v 0.838154 -0.94967 0.0257914
v 1.29008 -5.21258 -0.548589
v 0.944927 -5.21258 -1.02365
v 0.941703 -1.39195 -1.00969
v 1.28225 -1.39195 -0.540967
v 0.436385 -5.21258 -1.31726
v 0.439928 -1.39195 -1.29939
v -0.147612 -5.21258 -1.37864
v -0.136293 -1.39194 -1.35994
v -0.147612 -5.21258 -1.37864
v -0.706084 -5.21258 -1.19718
v -0.687312 -1.39195 -1.18091
v -0.136293 -1.39194 -1.35994
v -1.14246 -5.21257 -0.804255
v -1.11787 -1.39193 -0.793212
v -1.3813 -5.21257 -0.267812
v -1.35354 -1.39193 -0.26391
v -1.3813 -5.21257 0.319397
v -1.35354 -1.39193 0.315478
v -1.14246 -5.21257 0.85584
v -1.11788 -1.39193 0.844773
v -0.706081 -5.21257 1.24876
v -0.687318 -1.39193 1.23246
v -0.147611 -5.21257 1.43022
v -0.136294 -1.39193 1.4115
v 0.436382 -5.21257 1.36884
v 0.439921 -1.39193 1.35094
v 0.944921 -5.21257 1.07523
v 0.941688 -1.39193 1.06124
v 1.29008 -5.21257 0.600172
v 1.28225 -1.39193 0.59251
v 1.41217 -5.21257 0.0257933
v 1.40271 -1.39193 0.0257773
v 0.422909 -4.68264 0.452707
v 0.597157 -4.68264 0.278461
v 3.83604 -4.68264 3.51734
v 3.6618 -4.68264 3.69159
v 3.6618 -4.68264 3.69159
v 3.83604 -4.68264 3.51734
v 3.83604 -2.37023 3.51734
v 3.6618 -2.37023 3.69159
v 3.6618 -2.37023 3.69159
v 3.83604 -2.37023 3.51734
v 0.597157 -2.37023 0.278461
v 0.422909 -2.37023 0.452707
v 0.422909 -2.37023 0.452707
v 0.597157 -2.37023 0.278461
v 0.597157 -4.68264 0.278461
v 0.422909 -4.68264 0.452707
v 0.597157 -4.68264 0.278461
v 0.597157 -2.37023 0.278461
v 3.83604 -2.37023 3.51734
v 3.83604 -4.68264 3.51734
v 0.422909 -2.37023 0.452707
v 0.422909 -4.68264 0.452707
v 3.6618 -4.68264 3.69159
v 3.6618 -2.37023 3.69159
v -3.81901 -5.84604 -3.97893
v -3.81901 -5.84604 -4.21854
v 3.66355 -5.84604 -4.21854
v 3.66355 -5.84604 -3.97893
v 3.66355 -5.84604 -3.97893
v 3.66355 -5.84604 -4.21854
v 3.66355 -0.307166 -4.21854
v 3.66355 -0.307166 -3.97893
v 3.66355 -0.307166 -3.97893
v 3.66355 -0.307166 -4.21854
v -3.81901 -0.307166 -4.21854
v -3.81901 -0.307166 -3.97893
v -3.81901 -0.307166 -3.97893
v -3.81901 -0.307166 -4.21854
v -3.81901 -5.84604 -4.21854
v -3.81901 -5.84604 -3.97893
v -3.81901 -5.84604 -4.21854
v -3.81901 -0.307166 -4.21854
v 3.66355 -0.307166 -4.21854
v 3.66355 -5.84604 -4.21854
v -3.81901 -0.307166 -3.97893
v -3.81901 -5.84604 -3.97893
v 3.66355 -5.84604 -3.97893
v 3.66355 -0.307166 -3.97893
v -4.0326 -5.84604 -4.22714
v -3.79299 -5.84604 -4.22714
v -3.79299 -5.84604 3.88961
v -4.0326 -5.84604 3.88961
v -4.0326 -5.84604 3.88961
v -3.79299 -5.84604 3.88961
v -3.79299 -0.307166 3.88961
v -4.0326 -0.307166 3.88961
v -4.0326 -0.307166 3.88961
v -3.79299 -0.307166 3.88961
v -3.79299 -0.307166 -4.22714
v -4.0326 -0.307166 -4.22714
v -4.0326 -0.307166 -4.22714
v -3.79299 -0.307166 -4.22714
v -3.79299 -5.84604 -4.22714
v -4.0326 -5.84604 -4.22714
v -3.79299 -5.84604 -4.22714
v -3.79299 -0.307166 -4.22714
v -3.79299 -0.307166 3.88961
v -3.79299 -5.84604 3.88961
v -4.0326 -0.307166 -4.22714
v -4.0326 -5.84604 -4.22714
v -4.0326 -5.84604 3.88961
v -4.0326 -0.307166 3.88961
v -3.81901 -5.84604 3.88961
v -3.81901 -5.84604 3.64999
v 3.66355 -5.84604 3.64999
v 3.66355 -5.84604 3.88961
v 3.66355 -5.84604 3.88961
v 3.66355 -5.84604 3.64999
v 3.66355 -0.307166 3.64999
v 3.66355 -0.307166 3.88961
v 3.66355 -0.307166 3.88961
v 3.66355 -0.307166 3.64999
v -3.81901 -0.307166 3.64999
v -3.81901 -0.307166 3.88961
v -3.81901 -0.307166 3.88961
v -3.81901 -0.307166 3.64999
v -3.81901 -5.84604 3.64999
v -3.81901 -5.84604 3.88961
v -3.81901 -5.84604 3.64999
v -3.81901 -0.307166 3.64999
v 3.66355 -0.307166 3.64999
v 3.66355 -5.84604 3.64999
v -3.81901 -0.307166 3.88961
v -3.81901 -5.84604 3.88961
v 3.66355 -5.84604 3.88961
v 3.66355 -0.307166 3.88961
v -0.477778 -4.68264 -0.830884
v -0.652026 -4.68264 -0.656638
v -3.89091 -4.68264 -3.89551
v -3.71667 -4.68264 -4.06976
v -3.71667 -4.68264 -4.06976
v -3.89091 -4.68264 -3.89551
v -3.89091 -2.37839 -3.89551
v -3.71667 -2.37839 -4.06976
v -3.71667 -2.37839 -4.06976
v -3.89091 -2.37839 -3.89551
v -0.652026 -2.37839 -0.656638
v -0.477778 -2.37839 -0.830884
v -0.477778 -2.37839 -0.830884
v -0.652026 -2.37839 -0.656638
v -0.652026 -4.68264 -0.656638
v -0.477778 -4.68264 -0.830884
v -0.652026 -4.68264 -0.656638
v -0.652026 -2.37839 -0.656638
v -3.89091 -2.37839 -3.89551
v -3.89091 -4.68264 -3.89551
v -0.477778 -2.37839 -0.830884
v -0.477778 -4.68264 -0.830884
v -3.71667 -4.68264 -4.06976
v -3.71667 -2.37839 -4.06976
v -0.653672 -4.68264 0.2792
v -0.479427 -4.68264 0.453448
v -3.7183 -4.68264 3.69233
v -3.89255 -4.68264 3.51809
v -3.89255 -4.68264 3.51809
v -3.7183 -4.68264 3.69233
v -3.7183 -2.37839 3.69233
v -3.89255 -2.37839 3.51809
v -3.89255 -2.37839 3.51809
v -3.7183 -2.37839 3.69233
v -0.479427 -2.37839 0.453448
v -0.653672 -2.37839 0.2792
v -0.653672 -2.37839 0.2792
v -0.479427 -2.37839 0.453448
v -0.479427 -4.68264 0.453448
v -0.653672 -4.68264 0.2792
v -0.479427 -4.68264 0.453448
v -0.479427 -2.37839 0.453448
v -3.7183 -2.37839 3.69233
v -3.7183 -4.68264 3.69233
v -0.653672 -2.37839 0.2792
v -0.653672 -4.68264 0.2792
v -3.89255 -4.68264 3.51809
v -3.89255 -2.37839 3.51809
v 0.54151 -4.68264 -0.61729
v 0.367264 -4.68264 -0.791538
v 3.60614 -4.68264 -4.03042
v 3.78039 -4.68264 -3.85618
v 3.78039 -4.68264 -3.85618
v 3.60614 -4.68264 -4.03042
v 3.60614 -2.37023 -4.03042
v 3.78039 -2.37023 -3.85618
v 3.78039 -2.37023 -3.85618
v 3.60614 -2.37023 -4.03042
v 0.367264 -2.37023 -0.791538
v 0.54151 -2.37023 -0.61729
v 0.54151 -2.37023 -0.61729
v 0.367264 -2.37023 -0.791538
v 0.367264 -4.68264 -0.791538
v 0.54151 -4.68264 -0.61729
v 0.367264 -4.68264 -0.791538
v 0.367264 -2.37023 -0.791538
v 3.60614 -2.37023 -4.03042
v 3.60614 -4.68264 -4.03042
v 0.54151 -2.37023 -0.61729
v 0.54151 -4.68264 -0.61729
v 3.78039 -4.68264 -3.85618
v 3.78039 -2.37023 -3.85618
v 3.66355 -5.84604 -4.22714
v 3.90316 -5.84604 -4.22714
v 3.90316 -5.84604 3.88961
v 3.66355 -5.84604 3.88961
v 3.90316 -5.84604 3.88961
v 3.90316 -0.307166 3.88961
v 3.66355 -0.307166 3.88961
v 3.90316 -0.307166 3.88961
v 3.90316 -0.307166 -4.22714
v 3.66355 -0.307166 -4.22714
v 3.66355 -0.307166 -4.22714
v 3.90316 -0.307166 -4.22714
v 3.90316 -5.84604 -4.22714
v 3.66355 -5.84604 -4.22714
v 3.90316 -5.84604 -4.22714
v 3.90316 -0.307166 -4.22714
v 3.90316 -0.307166 3.88961
v 3.90316 -5.84604 3.88961
v 3.66355 -0.307166 -4.22714
v 3.66355 -5.84604 -4.22714
v 3.66355 -5.84604 3.88961
v 3.66355 -0.307166 3.88961
v -0.419072 -0.949683 -0.700106
v 0.259006 -0.949681 -0.771376
v -0.0876256 -0.949677 -0.8078
v 0.259006 -0.949681 -0.771376
v -0.419072 -0.949683 -0.700106
v 0.560863 -0.949681 -0.5971
v 0.560863 -0.949681 -0.5971
v -0.419072 -0.949683 -0.700106
v -0.678068 -0.94967 -0.466875
v -0.678068 -0.94967 -0.466875
v 0.765705 -0.949681 -0.315165
v -0.819835 -0.949674 -0.148467
v 0.838154 -0.94967 0.0257914
v -0.819838 -0.949674 0.200049
v 0.765686 -0.949674 0.366704
v -0.678076 -0.949672 0.518445
v 0.560816 -0.949672 0.648668
v -0.419074 -0.949674 0.751653
v 0.259013 -0.949674 0.822918
v 0.259013 -0.949674 0.822918
v -0.419074 -0.949674 0.751653
v -0.0876176 -0.94967 0.859349
vt 0.161169 0.127206
vt 0.17302 0.118596
vt 0.187349 0.150779
vt 0.153844 0.139893
vt 0.152313 0.154462
vt 0.15684 0.168394
vt 0.166642 0.17928
vt 0.180025 0.185239
vt 0.194674 0.185239
vt 0.208056 0.17928
vt 0.217859 0.168394
vt 0.222386 0.154462
vt 0.220854 0.139893
vt 0.21353 0.127206
vt 0.201679 0.118596
vt 0.187349 0.11555
vt 0.16023 0.089868
vt 0.1378 0.106165
vt 0.149387 0.065514
vt 0.117988 0.088326
vt 0.299214 0.539536
vt 0.299225 0.519781
vt 0.319402 0.51978
vt 0.319381 0.539534
vt 0.142142 0.049241
vt 0.104751 0.076407
vt 0.123937 0.130175
vt 0.098583 0.121937
vt 0.339507 0.519777
vt 0.339481 0.539531
vt 0.081641 0.116433
vt 0.121039 0.157749
vt 0.094526 0.160536
vt 0.359524 0.519774
vt 0.359497 0.539528
vt 0.07681 0.162397
vt 0.129606 0.184117
vt 0.106519 0.197447
vt 0.059562 0.539528
vt 0.059589 0.519774
vt 0.079514 0.519771
vt 0.079491 0.539525
vt 0.091092 0.206353
vt 0.148158 0.204721
vt 0.132488 0.226289
vt 0.09936 0.519769
vt 0.099345 0.539523
vt 0.122018 0.2407
vt 0.173487 0.215998
vt 0.167944 0.242075
vt 0.119154 0.519768
vt 0.119149 0.539521
vt 0.16424 0.259498
vt 0.201212 0.215998
vt 0.206755 0.242075
vt 0.13893 0.519768
vt 0.138935 0.539521
vt 0.210458 0.259499
vt 0.22654 0.204721
vt 0.24221 0.226289
vt 0.158723 0.519769
vt 0.158739 0.539523
vt 0.252681 0.2407
vt 0.245092 0.184117
vt 0.26818 0.197447
vt 0.17857 0.519771
vt 0.178593 0.539525
vt 0.283606 0.206353
vt 0.25366 0.157749
vt 0.280173 0.160536
vt 0.198495 0.519774
vt 0.198522 0.539528
vt 0.297889 0.162398
vt 0.250762 0.130175
vt 0.276116 0.121937
vt 0.218511 0.519777
vt 0.218537 0.539531
vt 0.293057 0.116433
vt 0.236899 0.106165
vt 0.256711 0.088326
vt 0.238617 0.51978
vt 0.238638 0.539534
vt 0.269948 0.076407
vt 0.214469 0.089868
vt 0.225312 0.065514
vt 0.258794 0.519781
vt 0.258805 0.539536
vt 0.232557 0.049241
vt 0.187349 0.084104
vt 0.18735 0.057445
vt 0.279009 0.519782
vt 0.279009 0.539536
vt 0.18735 0.039631
vt 0.319394 0.815633
vt 0.299221 0.815635
vt 0.339498 0.81563
vt 0.359514 0.815627
vt 0.079506 0.815624
vt 0.059579 0.815627
vt 0.099355 0.815622
vt 0.119152 0.815621
vt 0.138932 0.815621
vt 0.158729 0.815622
vt 0.178578 0.815624
vt 0.198505 0.815627
vt 0.218521 0.81563
vt 0.238624 0.815633
vt 0.258798 0.815635
vt 0.279009 0.815636
vt 0.299256 0.852504
vt 0.319458 0.852503
vt 0.163471 0.097147
vt 0.145994 0.057894
vt 0.111789 0.082745
vt 0.143721 0.111496
vt 0.339578 0.8525
vt 0.09065 0.11936
vt 0.131515 0.132638
vt 0.359597 0.852498
vt 0.086231 0.161407
vt 0.128963 0.156916
vt 0.059663 0.852498
vt 0.079577 0.852495
vt 0.099296 0.201617
vt 0.136507 0.180133
vt 0.099403 0.852494
vt 0.127586 0.233037
vt 0.152842 0.198275
vt 0.119169 0.852493
vt 0.16621 0.250233
vt 0.175143 0.208204
vt 0.138915 0.852493
vt 0.208489 0.250233
vt 0.199555 0.208204
vt 0.158681 0.852494
vt 0.247113 0.233037
vt 0.221857 0.198275
vt 0.178506 0.852496
vt 0.275403 0.201617
vt 0.238191 0.180133
vt 0.198421 0.852498
vt 0.288468 0.161407
vt 0.245735 0.156916
vt 0.21844 0.852501
vt 0.284049 0.11936
vt 0.243183 0.132638
vt 0.238561 0.852503
vt 0.262909 0.082745
vt 0.230978 0.111496
vt 0.258763 0.852505
vt 0.228705 0.057894
vt 0.211228 0.097147
vt 0.279009 0.852506
vt 0.18735 0.049104
vt 0.187349 0.092072
vt 0.173175 0.118947
vt 0.163787 0.097473
vt 0.144302 0.11163
vt 0.161454 0.127463
vt 0.132258 0.13249
vt 0.154209 0.140012
vt 0.12974 0.156445
vt 0.152695 0.154422
vt 0.137183 0.179353
vt 0.157172 0.168201
vt 0.153301 0.197252
vt 0.166868 0.178969
vt 0.175306 0.20705
vt 0.180105 0.184862
vt 0.199392 0.20705
vt 0.194594 0.184862
vt 0.221397 0.197253
vt 0.20783 0.178969
vt 0.237514 0.179353
vt 0.217525 0.168201
vt 0.244957 0.156446
vt 0.222003 0.154422
vt 0.242439 0.132491
vt 0.220488 0.140012
vt 0.230396 0.111631
vt 0.213244 0.127465
vt 0.210909 0.097473
vt 0.201522 0.118948
vt 0.187349 0.092465
vt 0.187349 0.115935
vt 0.29862 0.871966
vt 0.320206 0.871965
vt 0.319968 0.962473
vt 0.298489 0.962474
vt 0.34164 0.871964
vt 0.341339 0.962471
vt 0.362883 0.871962
vt 0.362573 0.962469
vt 0.044821 0.871962
vt 0.065872 0.871961
vt 0.065605 0.962468
vt 0.044511 0.962469
vt 0.086761 0.87196
vt 0.086582 0.962467
vt 0.107543 0.871959
vt 0.10748 0.962466
vt 0.128288 0.871959
vt 0.128351 0.962466
vt 0.14907 0.87196
vt 0.149249 0.962467
vt 0.16996 0.871961
vt 0.170225 0.962468
vt 0.191011 0.871962
vt 0.19132 0.96247
vt 0.212254 0.871964
vt 0.212555 0.962471
vt 0.233687 0.871966
vt 0.233926 0.962473
vt 0.255274 0.871967
vt 0.255406 0.962474
vt 0.276947 0.871967
vt 0.276947 0.962474
vt 0.856354 0.617527
vt 0.880933 0.617527
vt 0.880933 0.959089
vt 0.856354 0.959089
vt 0.923307 0.61815
vt 0.947795 0.61815
vt 0.947795 0.958467
vt 0.923307 0.958467
vt 0.856354 0.959089
vt 0.880933 0.959089
vt 0.880933 0.617527
vt 0.856354 0.617527
vt 0.923307 0.958467
vt 0.947795 0.958467
vt 0.947795 0.61815
vt 0.923307 0.61815
vt 0.400411 0.642361
vt 0.823972 0.642361
vt 0.823972 0.95903
vt 0.400411 0.95903
vt 0.823972 0.642361
vt 0.400411 0.642361
vt 0.400411 0.95903
vt 0.823972 0.95903
vt 0.846406 0.055976
vt 0.866217 0.055976
vt 0.866217 0.557702
vt 0.846406 0.557702
vt 0.886596 0.052455
vt 0.920218 0.052455
vt 0.920218 0.554181
vt 0.886596 0.554181
vt 0.846406 0.557702
vt 0.866217 0.557702
vt 0.866217 0.055976
vt 0.846406 0.055976
vt 0.886596 0.554181
vt 0.920218 0.554181
vt 0.920218 0.052455
vt 0.886596 0.052455
vt 0.418411 0.055976
vt 0.813834 0.055976
vt 0.813834 0.557702
vt 0.418411 0.557702
vt 0.813834 0.055976
vt 0.418411 0.055976
vt 0.418411 0.557702
vt 0.813834 0.557702
vt 0.846406 0.055976
vt 0.866217 0.055976
vt 0.866217 0.557702
vt 0.846406 0.557702
vt 0.886596 0.052455
vt 0.920218 0.052455
vt 0.920218 0.554181
vt 0.886596 0.554181
vt 0.846406 0.557702
vt 0.866217 0.557702
vt 0.866217 0.055976
vt 0.846406 0.055976
vt 0.886596 0.554181
vt 0.920218 0.554181
vt 0.920218 0.052455
vt 0.886596 0.052455
vt 0.418411 0.055976
vt 0.813834 0.055976
vt 0.813834 0.557702
vt 0.418411 0.557702
vt 0.813834 0.055976
vt 0.418411 0.055976
vt 0.418411 0.557702
vt 0.813834 0.557702
vt 0.846406 0.055976
vt 0.866217 0.055976
vt 0.866217 0.557702
vt 0.846406 0.557702
vt 0.886596 0.052455
vt 0.920218 0.052455
vt 0.920218 0.554181
vt 0.886596 0.554181
vt 0.846406 0.557702
vt 0.866217 0.557702
vt 0.866217 0.055976
vt 0.846406 0.055976
vt 0.886596 0.554181
vt 0.920218 0.554181
vt 0.920218 0.052455
vt 0.886596 0.052455
vt 0.418411 0.055976
vt 0.813834 0.055976
vt 0.813834 0.557702
vt 0.418411 0.557702
vt 0.813834 0.055976
vt 0.418411 0.055976
vt 0.418411 0.557702
vt 0.813834 0.557702
vt 0.856355 0.617527
vt 0.880933 0.617527
vt 0.880933 0.959089
vt 0.856355 0.959089
vt 0.923307 0.61815
vt 0.947795 0.61815
vt 0.947795 0.958467
vt 0.923307 0.958467
vt 0.856355 0.959089
vt 0.880933 0.959089
vt 0.880933 0.617527
vt 0.856355 0.617527
vt 0.923307 0.958467
vt 0.947795 0.958467
vt 0.947795 0.61815
vt 0.923307 0.61815
vt 0.400411 0.642361
vt 0.823972 0.642361
vt 0.823972 0.959029
vt 0.400411 0.959029
vt 0.823972 0.642361
vt 0.400411 0.642361
vt 0.400411 0.959029
vt 0.823972 0.959029
vt 0.856355 0.617527
vt 0.880933 0.617527
vt 0.880933 0.959089
vt 0.856355 0.959089
vt 0.923307 0.61815
vt 0.947795 0.61815
vt 0.947795 0.958467
vt 0.923307 0.958467
vt 0.856355 0.959089
vt 0.880933 0.959089
vt 0.880933 0.617527
vt 0.856355 0.617527
vt 0.923307 0.958467
vt 0.947795 0.958467
vt 0.947795 0.61815
vt 0.923307 0.61815
vt 0.400411 0.642361
vt 0.823972 0.642361
vt 0.823972 0.959029
vt 0.400411 0.959029
vt 0.823972 0.642361
vt 0.400411 0.642361
vt 0.400411 0.959029
vt 0.823972 0.959029
vt 0.856355 0.617527
vt 0.880933 0.617527
vt 0.880933 0.959089
vt 0.856355 0.959089
vt 0.923307 0.61815
vt 0.947795 0.61815
vt 0.947795 0.958467
vt 0.923307 0.958467
vt 0.856355 0.959089
vt 0.880933 0.959089
vt 0.880933 0.617527
vt 0.856355 0.617527
vt 0.923307 0.958467
vt 0.947795 0.958467
vt 0.947795 0.61815
vt 0.923307 0.61815
vt 0.400411 0.642361
vt 0.823972 0.642361
vt 0.823972 0.959029
vt 0.400411 0.959029
vt 0.823972 0.642361
vt 0.400411 0.642361
vt 0.400411 0.959029
vt 0.823972 0.959029
vt 0.846406 0.055976
vt 0.866217 0.055976
vt 0.866217 0.557702
vt 0.886596 0.052455
vt 0.920219 0.052455
vt 0.920219 0.554181
vt 0.886596 0.554181
vt 0.866217 0.557702
vt 0.866217 0.055976
vt 0.846406 0.055976
vt 0.886596 0.554181
vt 0.920219 0.554181
vt 0.920219 0.052455
vt 0.886596 0.052455
vt 0.418411 0.055976
vt 0.813834 0.055976
vt 0.813834 0.557702
vt 0.418411 0.557702
vt 0.813834 0.055976
vt 0.418411 0.055976
vt 0.418411 0.557702
vt 0.813834 0.557702
vt 0.157172 0.168201
vt 0.154209 0.140012
vt 0.152695 0.154422
vt 0.154209 0.140012
vt 0.157172 0.168201
vt 0.161454 0.127463
vt 0.161454 0.127463
vt 0.157172 0.168201
vt 0.166868 0.178969
vt 0.166868 0.178969
vt 0.173175 0.118947
vt 0.180105 0.184862
vt 0.187349 0.115935
vt 0.194594 0.184862
vt 0.201522 0.118948
vt 0.20783 0.178969
vt 0.213244 0.127465
vt 0.217525 0.168201
vt 0.220488 0.140012
vt 0.220488 0.140012
vt 0.217525 0.168201
vt 0.222003 0.154422
vn 0.118101 -0.984309 -0.131101
vn 0.161201 -0.984306 -0.0718005
vn 0 -1 0
vn 0.0545007 -0.984313 -0.167802
vn -0.0184001 -0.984307 -0.175501
vn -0.0882012 -0.984313 -0.152802
vn -0.142703 -0.984318 -0.103702
vn -0.172601 -0.984308 -0.0367003
vn -0.172601 -0.984308 0.0367003
vn -0.142703 -0.984318 0.103702
vn -0.0882012 -0.984313 0.152802
vn -0.0184001 -0.984307 0.175501
vn 0.0545007 -0.984313 0.167802
vn 0.118101 -0.984309 0.131101
vn 0.161201 -0.984306 0.0718005
vn 0.176403 -0.984318 0
vn 0.456613 -0.866124 -0.203306
vn 0.334495 -0.866086 -0.371494
vn 0.71762 -0.618818 -0.319509
vn 0.525633 -0.618839 -0.583737
vn 0.913497 -0.0109 -0.406699
vn 0.866387 -0.317195 -0.385694
vn 0.634576 -0.317188 -0.704773
vn 0.669096 -0.0108999 -0.743096
vn 0.86636 -0.317285 -0.385682
vn 0.6346 -0.3173 -0.704701
vn 0.1545 -0.866098 -0.475399
vn 0.242703 -0.618808 -0.747109
vn 0.293081 -0.31718 -0.901943
vn 0.309 -0.0109 -0.951
vn 0.293098 -0.317298 -0.901895
vn -0.052201 -0.866116 -0.497109
vn -0.082103 -0.618823 -0.781228
vn -0.0990969 -0.31719 -0.94317
vn -0.104496 -0.0108996 -0.994466
vn -0.0991031 -0.31731 -0.943129
vn -0.249902 -0.866108 -0.432904
vn -0.392797 -0.618796 -0.680295
vn -0.104595 -0.0108995 -0.994455
vn -0.0991959 -0.317187 -0.943161
vn -0.474196 -0.317198 -0.821294
vn -0.499981 -0.0108996 -0.865968
vn -0.474181 -0.317288 -0.821268
vn -0.404403 -0.866106 -0.293802
vn -0.635519 -0.618818 -0.461714
vn -0.767236 -0.317215 -0.557426
vn -0.809004 -0.0109 -0.587703
vn -0.767212 -0.317305 -0.557408
vn -0.488913 -0.866123 -0.103903
vn -0.768352 -0.618842 -0.163311
vn -0.927625 -0.317209 -0.197205
vn -0.97809 -0.0108999 -0.207898
vn -0.927596 -0.317299 -0.197199
vn -0.488913 -0.866123 0.103903
vn -0.768352 -0.618842 0.163311
vn -0.927625 -0.317209 0.197205
vn -0.97809 -0.0108999 0.207898
vn -0.927596 -0.317299 0.197199
vn -0.404403 -0.866106 0.293802
vn -0.635519 -0.618818 0.461714
vn -0.767236 -0.317215 0.557426
vn -0.808956 -0.0108994 0.587768
vn -0.767212 -0.317305 0.557408
vn -0.249902 -0.866108 0.432904
vn -0.392797 -0.618796 0.680295
vn -0.474196 -0.317198 0.821294
vn -0.499981 -0.0108996 0.865968
vn -0.474181 -0.317288 0.821268
vn -0.0523007 -0.866112 0.497107
vn -0.082103 -0.618823 0.781228
vn -0.0990969 -0.31719 0.94317
vn -0.104496 -0.0108996 0.994466
vn -0.0991031 -0.31731 0.943129
vn 0.1545 -0.866098 0.475399
vn 0.242703 -0.618808 0.747109
vn 0.293081 -0.31718 0.901943
vn 0.309 -0.0109 0.951
vn 0.293007 -0.317308 0.901922
vn 0.334495 -0.866086 0.371494
vn 0.525602 -0.618803 0.583803
vn 0.634576 -0.317188 0.704773
vn 0.669096 -0.0108999 0.743096
vn 0.634556 -0.317278 0.704751
vn 0.456613 -0.866124 0.203306
vn 0.71762 -0.618818 0.319509
vn 0.866387 -0.317195 0.385694
vn 0.913497 -0.0109 0.406699
vn 0.866335 -0.317313 0.385716
vn 0.499893 -0.866087 0
vn 0.78553 -0.618824 0
vn 0.948363 -0.317188 0
vn 0.999941 -0.0109004 0
vn 0.948323 -0.317308 0
vn 0.668919 0.0248007 -0.742921
vn 0.913275 0.0247993 -0.406589
vn 0.308892 0.0247993 -0.950774
vn -0.104502 0.0247004 -0.994218
vn -0.499794 0.0247997 -0.865789
vn -0.104502 0.0247004 -0.994218
vn -0.808781 0.0247994 -0.587586
vn -0.977834 0.0248009 -0.207907
vn -0.977854 0.0248014 0.207812
vn -0.808781 0.0247994 0.587586
vn -0.499869 0.0247985 0.865746
vn -0.104502 0.0248004 0.994215
vn 0.308892 0.0247993 0.950774
vn 0.668919 0.0248007 0.742921
vn 0.913275 0.0247993 0.406589
vn 0.999692 0.0247998 0
vn 0.875992 0.283797 -0.389996
vn 0.641603 0.283801 -0.712603
vn 0.861983 0.331193 -0.383792
vn 0.875992 0.283797 -0.389996
vn 0.641603 0.283801 -0.712603
vn 0.631387 0.331193 -0.701186
vn 0.296288 0.283789 -0.911963
vn 0.296315 0.283815 -0.911947
vn 0.291593 0.331192 -0.897377
vn -0.100203 0.283809 -0.953631
vn -0.100203 0.283809 -0.953631
vn -0.0985995 0.331198 -0.938395
vn -0.100302 0.283806 -0.953621
vn -0.479417 0.28381 -0.830429
vn -0.479417 0.28381 -0.830429
vn -0.471814 0.33121 -0.817124
vn -0.775779 0.283792 -0.563585
vn -0.775779 0.283792 -0.563585
vn -0.763379 0.331191 -0.554585
vn -0.937919 0.283806 -0.199404
vn -0.937919 0.283806 -0.199404
vn -0.922931 0.331211 -0.196207
vn -0.937919 0.283806 0.199404
vn -0.937919 0.283806 0.199404
vn -0.922931 0.331211 0.196207
vn -0.788595 0.223399 0.572897
vn -0.763379 0.331191 0.554585
vn -0.763379 0.331191 0.554585
vn -0.487407 0.223403 0.844112
vn -0.471775 0.331183 0.817157
vn -0.471775 0.331183 0.817157
vn -0.101899 0.223397 0.969387
vn -0.0985995 0.331198 0.938395
vn -0.0985995 0.331198 0.938395
vn 0.301206 0.223405 0.927019
vn 0.291593 0.331192 0.897377
vn 0.291593 0.331192 0.897377
vn 0.652191 0.223397 0.72439
vn 0.631387 0.331193 0.701186
vn 0.631387 0.331193 0.701186
vn 0.890451 0.223388 0.396478
vn 0.861983 0.331193 0.383792
vn 0.861983 0.331193 0.383792
vn 0.958885 0.283796 0
vn 0.958885 0.283796 0
vn 0.943565 0.331188 0
vn 0.563875 0.786765 -0.251089
vn 0.564179 0.78677 -0.25039
vn 0.414577 0.785557 -0.459375
vn 0.413406 0.785512 -0.460507
vn 0.192807 0.783728 -0.590421
vn 0.190801 0.783704 -0.591103
vn -0.0638999 0.781599 -0.620499
vn -0.066501 0.781612 -0.62021
vn -0.3124 0.779599 -0.542799
vn -0.314103 0.779607 -0.541805
vn -0.507975 0.777961 -0.369782
vn -0.508774 0.777961 -0.368681
vn -0.615589 0.777086 -0.131098
vn -0.615692 0.777089 -0.130598
vn -0.615589 0.777086 0.131098
vn -0.615692 0.777089 0.130598
vn -0.507975 0.777961 0.369782
vn -0.508774 0.777961 0.368681
vn -0.3124 0.779599 0.542799
vn -0.314103 0.779607 0.541805
vn -0.0643023 0.781628 0.620422
vn -0.066501 0.781612 0.62021
vn 0.193092 0.783767 0.590275
vn 0.190801 0.783704 0.591103
vn 0.414577 0.785557 0.459375
vn 0.413597 0.785594 0.460196
vn 0.564 0.7868 0.2507
vn 0.563682 0.786775 0.251492
vn 0.616699 0.787199 0
vn 0.616699 0.787199 0
vn 0.913474 0.00269992 -0.406888
vn 0.668922 0.00330011 -0.743325
vn 0.669293 0.00329996 -0.742992
vn 0.913602 0.00270001 -0.406601
vn 0.308715 0.0042002 -0.951145
vn 0.309287 0.00419982 -0.95096
vn -0.104798 0.0051999 -0.99448
vn -0.104204 0.00520022 -0.994542
vn -0.104897 0.00519984 -0.99447
vn -0.500195 0.00609994 -0.865891
vn -0.499808 0.0061001 -0.866115
vn -0.104204 0.00520022 -0.994542
vn -0.809115 0.00690012 -0.587611
vn -0.808903 0.00690002 -0.587902
vn -0.978142 0.00730032 -0.207809
vn -0.978101 0.00730001 -0.208
vn -0.978142 0.00730032 0.207809
vn -0.978101 0.00730001 0.208
vn -0.809115 0.00690012 0.587611
vn -0.808903 0.00690002 0.587902
vn -0.500195 0.00619993 0.865891
vn -0.499808 0.0062001 0.866114
vn -0.104798 0.0051999 0.99448
vn -0.104204 0.00520022 0.994542
vn 0.308715 0.0042002 0.951145
vn 0.309287 0.00419982 0.95096
vn 0.668922 0.00330011 0.743325
vn 0.669293 0.00329996 0.742992
vn 0.913474 0.00269992 0.406888
vn 0.913602 0.00270001 0.406601
vn 0.999997 0.00249999 0
vn 0.999997 0.00249999 0
vn 0 -1 0
vn 0 -1 0
vn 0 -1 0
vn 0 -1 0
vn 0.707107 0 0.707107
vn 0.707107 0 0.707107
vn 0.707107 0 0.707107
vn 0.707107 0 0.707107
vn 0 1 0
vn 0 1 0
vn 0 1 0
vn 0 1 0
vn -0.707107 0 -0.707107
vn -0.707107 0 -0.707107
vn -0.707107 0 -0.707107
vn -0.707107 0 -0.707107
vn 0.707107 0 -0.707107
vn 0.707107 0 -0.707107
vn 0.707107 0 -0.707107
vn 0.707107 0 -0.707107
vn -0.707107 0 0.707107
vn -0.707107 0 0.707107
vn -0.707107 0 0.707107
vn -0.707107 0 0.707107
vn 0 -1 0
vn 0 -1 0
vn 0 -1 0
vn 0 -1 0
vn 1 0 0
vn 1 0 0
vn 1 0 0
vn 1 0 0
vn 0 1 0
vn 0 1 0
vn 0 1 0
vn 0 1 0
vn -1 0 0
vn -1 0 0
vn -1 0 0
vn -1 0 0
vn 0 0 -1
vn 0 0 -1
vn 0 0 -1
vn 0 0 -1
vn 0 0 1
vn 0 0 1
vn 0 0 1
vn 0 0 1
vn 0 -1 0
vn 0 -1 0
vn 0 -1 0
vn 0 -1 0
vn 0 0 1
vn 0 0 1
vn 0 0 1
vn 0 0 1
vn 0 1 0
vn 0 1 0
vn 0 1 0
vn 0 1 0
vn 0 0 -1
vn 0 0 -1
vn 0 0 -1
vn 0 0 -1
vn 1 0 0
vn 1 0 0
vn 1 0 0
vn 1 0 0
vn -1 0 0
vn -1 0 0
vn -1 0 0
vn -1 0 0
vn 0 -1 0
vn 0 -1 0
vn 0 -1 0
vn 0 -1 0
vn 1 0 0
vn 1 0 0
vn 1 0 0
vn 1 0 0
vn 0 1 0
vn 0 1 0
vn 0 1 0
vn 0 1 0
vn -1 0 0
vn -1 0 0
vn -1 0 0
vn -1 0 0
vn 0 0 -1
vn 0 0 -1
vn 0 0 -1
vn 0 0 -1
vn 0 0 1
vn 0 0 1
vn 0 0 1
vn 0 0 1
vn 0 -1 0
vn 0 -1 0
vn 0 -1 0
vn 0 -1 0
vn -0.707107 0 -0.707107
vn -0.707107 0 -0.707107
vn -0.707107 0 -0.707107
vn -0.707107 0 -0.707107
vn 0 1 0
vn 0 1 0
vn 0 1 0
vn 0 1 0
vn 0.707107 0 0.707107
vn 0.707107 0 0.707107
vn 0.707107 0 0.707107
vn 0.707107 0 0.707107
vn -0.707107 0 0.707107
vn -0.707107 0 0.707107
vn -0.707107 0 0.707107
vn -0.707107 0 0.707107
vn 0.707107 0 -0.707107
vn 0.707107 0 -0.707107
vn 0.707107 0 -0.707107
vn 0.707107 0 -0.707107
vn 0 -1 0
vn 0 -1 0
vn 0 -1 0
vn 0 -1 0
vn -0.707107 0 0.707107
vn -0.707107 0 0.707107
vn -0.707107 0 0.707107
vn -0.707107 0 0.707107
vn 0 1 0
vn 0 1 0
vn 0 1 0
vn 0 1 0
vn 0.707107 0 -0.707107
vn 0.707107 0 -0.707107
vn 0.707107 0 -0.707107
vn 0.707107 0 -0.707107
vn 0.707107 0 0.707107
vn 0.707107 0 0.707107
vn 0.707107 0 0.707107
vn 0.707107 0 0.707107
vn -0.707107 0 -0.707107
vn -0.707107 0 -0.707107
vn -0.707107 0 -0.707107
vn -0.707107 0 -0.707107
vn 0 -1 0
vn 0 -1 0
vn 0 -1 0
vn 0 -1 0
vn 0.707107 0 -0.707107
vn 0.707107 0 -0.707107
vn 0.707107 0 -0.707107
vn 0.707107 0 -0.707107
vn 0 1 0
vn 0 1 0
vn 0 1 0
vn 0 1 0
vn -0.707107 0 0.707107
vn -0.707107 0 0.707107
vn -0.707107 0 0.707107
vn -0.707107 0 0.707107
vn -0.707107 0 -0.707107
vn -0.707107 0 -0.707107
vn -0.707107 0 -0.707107
vn -0.707107 0 -0.707107
vn 0.707107 0 0.707107
vn 0.707107 0 0.707107
vn 0.707107 0 0.707107
vn 0.707107 0 0.707107
vn 0 -1 0
vn 0 -1 0
vn 0 -1 0
vn 0 0 1
vn 0 0 1
vn 0 0 1
vn 0 0 1
vn 0 1 0
vn 0 1 0
vn 0 1 0
vn 0 0 -1
vn 0 0 -1
vn 0 0 -1
vn 0 0 -1
vn 1 0 0
vn 1 0 0
vn 1 0 0
vn 1 0 0
vn -1 0 0
vn -1 0 0
vn -1 0 0
vn -1 0 0
vn 0 1 0.0001
vn 0 1 0.0001
vn 0 1 0.0001
vn 0 1 0
vn 0 1 0
vn 0 1 0
vn 0 1 -0.0001
vn 0 1 -0.0001
vn 0 1 -0.0001
vn 0 1 0
vn 0 1 0
vn 0 1 0
vn 0 1 0
vn 0 1 0
vn 0 1 0
vn 0 1 0
vn 0 1 0
vn 0 1 0
vn 0 1 0
vn 0 1 -0.0001
vn 0 1 -0.0001
vn 0 1 -0.0001
usemtl blinn1SG.001
s off
f 18/18/18 19/19/19 20/20/20
f 21/21/21 18/18/18 20/20/20
f 22/22/22 21/21/21 20/20/20
f 23/23/23 22/22/22 20/20/20
f 24/24/24 23/23/23 20/20/20
f 25/25/25 24/24/24 20/20/20
f 26/26/26 25/25/25 20/20/20
f 27/27/27 26/26/26 20/20/20
f 28/28/28 27/27/27 20/20/20
f 29/29/29 28/28/28 20/20/20
f 30/30/30 29/29/29 20/20/20
f 31/31/31 30/30/30 20/20/20
f 32/32/32 31/31/31 20/20/20
f 33/33/33 32/32/32 20/20/20
f 19/19/19 33/33/33 20/20/20
f 34/34/34 19/19/19 18/18/18
f 34/34/34 18/18/18 35/35/35
f 36/36/36 34/34/34 35/35/35
f 36/36/36 35/35/35 37/37/37
f 38/38/38 39/39/39 40/40/40
f 38/38/38 40/40/40 41/41/41
f 42/42/42 36/36/36 37/37/37
f 42/42/42 37/37/37 43/43/43
f 35/35/35 18/18/18 21/21/21
f 35/35/35 21/21/21 44/44/44
f 37/37/37 35/35/35 44/44/44
f 37/37/37 44/44/44 45/45/45
f 41/41/41 40/40/40 46/46/46
f 41/41/41 46/46/46 47/47/47
f 43/43/43 37/37/37 45/45/45
f 43/43/43 45/45/45 48/48/48
f 44/44/44 21/21/21 22/22/22
f 44/44/44 22/22/22 49/49/49
f 45/45/45 44/44/44 49/49/49
f 45/45/45 49/49/49 50/50/50
f 47/47/47 46/46/46 51/51/51
f 47/47/47 51/51/51 52/52/52
f 48/48/48 45/45/45 50/50/50
f 48/48/48 50/50/50 53/53/53
f 49/49/49 22/22/22 23/23/23
f 49/49/49 23/23/23 54/54/54
f 50/50/50 49/49/49 54/54/54
f 50/50/50 54/54/54 55/55/55
f 56/56/56 57/57/57 58/58/58
f 56/56/56 58/58/58 59/59/59
f 53/53/53 50/50/50 55/55/55
f 53/53/53 55/55/55 60/60/60
f 54/54/54 23/23/23 24/24/24
f 54/54/54 24/24/24 61/61/61
f 55/55/55 54/54/54 61/61/61
f 55/55/55 61/61/61 62/62/62
f 59/59/59 58/58/58 63/63/63
f 59/59/59 63/63/63 64/64/64
f 60/60/60 55/55/55 62/62/62
f 60/60/60 62/62/62 65/65/65
f 61/61/61 24/24/24 25/25/25
f 61/61/61 25/25/25 66/66/66
f 62/62/62 61/61/61 66/66/66
f 62/62/62 66/66/66 67/67/67
f 64/64/64 63/63/63 68/68/68
f 64/64/64 68/68/68 69/69/69
f 65/65/65 62/62/62 67/67/67
f 65/65/65 67/67/67 70/70/70
f 66/66/66 25/25/25 26/26/26
f 66/66/66 26/26/26 71/71/71
f 67/67/67 66/66/66 71/71/71
f 67/67/67 71/71/71 72/72/72
f 69/69/69 68/68/68 73/73/73
f 69/69/69 73/73/73 74/74/74
f 70/70/70 67/67/67 72/72/72
f 70/70/70 72/72/72 75/75/75
f 71/71/71 26/26/26 27/27/27
f 71/71/71 27/27/27 76/76/76
f 72/72/72 71/71/71 76/76/76
f 72/72/72 76/76/76 77/77/77
f 74/74/74 73/73/73 78/78/78
f 74/74/74 78/78/78 79/79/79
f 75/75/75 72/72/72 77/77/77
f 75/75/75 77/77/77 80/80/80
f 76/76/76 27/27/27 28/28/28
f 76/76/76 28/28/28 81/81/81
f 77/77/77 76/76/76 81/81/81
f 77/77/77 81/81/81 82/82/82
f 79/79/79 78/78/78 83/83/83
f 79/79/79 83/83/83 84/84/84
f 80/80/80 77/77/77 82/82/82
f 80/80/80 82/82/82 85/85/85
f 81/81/81 28/28/28 29/29/29
f 81/81/81 29/29/29 86/86/86
f 82/82/82 81/81/81 86/86/86
f 82/82/82 86/86/86 87/87/87
f 84/84/84 83/83/83 88/88/88
f 84/84/84 88/88/88 89/89/89
f 85/85/85 82/82/82 87/87/87
f 85/85/85 87/87/87 90/90/90
f 86/86/86 29/29/29 30/30/30
f 86/86/86 30/30/30 91/91/91
f 87/87/87 86/86/86 91/91/91
f 87/87/87 91/91/91 92/92/92
f 89/89/89 88/88/88 93/93/93
f 89/89/89 93/93/93 94/94/94
f 90/90/90 87/87/87 92/92/92
f 90/90/90 92/92/92 95/95/95
f 91/91/91 30/30/30 31/31/31
f 91/91/91 31/31/31 96/96/96
f 92/92/92 91/91/91 96/96/96
f 92/92/92 96/96/96 97/97/97
f 94/94/94 93/93/93 98/98/98
f 94/94/94 98/98/98 99/99/99
f 95/95/95 92/92/92 97/97/97
f 95/95/95 97/97/97 100/100/100
f 96/96/96 31/31/31 32/32/32
f 96/96/96 32/32/32 101/101/101
f 97/97/97 96/96/96 101/101/101
f 97/97/97 101/101/101 102/102/102
f 99/99/99 98/98/98 103/103/103
f 99/99/99 103/103/103 104/104/104
f 100/100/100 97/97/97 102/102/102
f 100/100/100 102/102/102 105/105/105
f 101/101/101 32/32/32 33/33/33
f 101/101/101 33/33/33 106/106/106
f 102/102/102 101/101/101 106/106/106
f 102/102/102 106/106/106 107/107/107
f 104/104/104 103/103/103 108/108/108
f 104/104/104 108/108/108 109/109/109
f 105/105/105 102/102/102 107/107/107
f 105/105/105 107/107/107 110/110/110
f 19/19/19 34/34/34 106/106/106
f 19/19/19 106/106/106 33/33/33
f 34/34/34 36/36/36 107/107/107
f 34/34/34 107/107/107 106/106/106
f 36/36/36 42/42/42 110/110/110
f 36/36/36 110/110/110 107/107/107
f 39/39/39 38/38/38 109/109/109
f 39/39/39 109/109/109 108/108/108
f 38/38/38 41/41/41 111/111/111
f 38/38/38 111/111/111 112/112/112
f 41/41/41 47/47/47 113/113/113
f 41/41/41 113/113/113 111/111/111
f 47/47/47 52/52/52 114/114/114
f 47/47/47 114/114/114 113/113/113
f 56/56/56 59/59/59 115/115/115
f 56/56/56 115/115/115 116/116/116
f 59/59/59 64/64/64 117/117/117
f 59/59/59 117/117/117 115/115/115
f 64/64/64 69/69/69 118/118/118
f 64/64/64 118/118/118 117/117/117
f 69/69/69 74/74/74 119/119/119
f 69/69/69 119/119/119 118/118/118
f 74/74/74 79/79/79 120/120/120
f 74/74/74 120/120/120 119/119/119
f 79/79/79 84/84/84 121/121/121
f 79/79/79 121/121/121 120/120/120
f 84/84/84 89/89/89 122/122/122
f 84/84/84 122/122/122 121/121/121
f 89/89/89 94/94/94 123/123/123
f 89/89/89 123/123/123 122/122/122
f 94/94/94 99/99/99 124/124/124
f 94/94/94 124/124/124 123/123/123
f 99/99/99 104/104/104 125/125/125
f 99/99/99 125/125/125 124/124/124
f 104/104/104 109/109/109 126/126/126
f 104/104/104 126/126/126 125/125/125
f 109/109/109 38/38/38 112/112/112
f 109/109/109 112/112/112 126/126/126
f 127/127/127 112/112/112 111/111/111
f 127/127/127 111/111/111 128/128/128
f 129/129/129 130/130/130 131/131/131
f 129/129/129 131/131/131 132/132/132
f 128/128/128 111/111/111 113/113/113
f 128/128/128 113/113/113 133/133/133
f 132/132/132 131/131/131 134/134/134
f 132/132/132 134/134/134 135/135/135
f 133/133/133 113/113/113 114/114/114
f 133/133/133 114/114/114 136/136/136
f 135/135/135 134/134/134 137/137/137
f 135/135/135 137/137/137 138/138/138
f 139/139/139 116/116/116 115/115/115
f 139/139/139 115/115/115 140/140/140
f 138/138/138 137/137/137 141/141/141
f 138/138/138 141/141/141 142/142/142
f 140/140/140 115/115/115 117/117/117
f 140/140/140 117/117/117 143/143/143
f 142/142/142 141/141/141 144/144/144
f 142/142/142 144/144/144 145/145/145
f 143/143/143 117/117/117 118/118/118
f 143/143/143 118/118/118 146/146/146
f 145/145/145 144/144/144 147/147/147
f 145/145/145 147/147/147 148/148/148
f 146/146/146 118/118/118 119/119/119
f 146/146/146 119/119/119 149/149/149
f 148/148/148 147/147/147 150/150/150
f 148/148/148 150/150/150 151/151/151
f 149/149/149 119/119/119 120/120/120
f 149/149/149 120/120/120 152/152/152
f 151/151/151 150/150/150 153/153/153
f 151/151/151 153/153/153 154/154/154
f 152/152/152 120/120/120 121/121/121
f 152/152/152 121/121/121 155/155/155
f 154/154/154 153/153/153 156/156/156
f 154/154/154 156/156/156 157/157/157
f 155/155/155 121/121/121 122/122/122
f 155/155/155 122/122/122 158/158/158
f 157/157/157 156/156/156 159/159/159
f 157/157/157 159/159/159 160/160/160
f 158/158/158 122/122/122 123/123/123
f 158/158/158 123/123/123 161/161/161
f 160/160/160 159/159/159 162/162/162
f 160/160/160 162/162/162 163/163/163
f 161/161/161 123/123/123 124/124/124
f 161/161/161 124/124/124 164/164/164
f 163/163/163 162/162/162 165/165/165
f 163/163/163 165/165/165 166/166/166
f 164/164/164 124/124/124 125/125/125
f 164/164/164 125/125/125 167/167/167
f 166/166/166 165/165/165 168/168/168
f 166/166/166 168/168/168 169/169/169
f 167/167/167 125/125/125 126/126/126
f 167/167/167 126/126/126 170/170/170
f 169/169/169 168/168/168 171/171/171
f 169/169/169 171/171/171 172/172/172
f 112/112/112 127/127/127 170/170/170
f 112/112/112 170/170/170 126/126/126
f 130/130/130 129/129/129 172/172/172
f 130/130/130 172/172/172 171/171/171
f 173/173/173 174/174/174 175/175/175
f 173/173/173 175/175/175 176/176/176
f 176/176/176 175/175/175 177/177/177
f 176/176/176 177/177/177 178/178/178
f 178/178/178 177/177/177 179/179/179
f 178/178/178 179/179/179 180/180/180
f 180/180/180 179/179/179 181/181/181
f 180/180/180 181/181/181 182/182/182
f 182/182/182 181/181/181 183/183/183
f 182/182/182 183/183/183 184/184/184
f 184/184/184 183/183/183 185/185/185
f 184/184/184 185/185/185 186/186/186
f 186/186/186 185/185/185 187/187/187
f 186/186/186 187/187/187 188/188/188
f 188/188/188 187/187/187 189/189/189
f 188/188/188 189/189/189 190/190/190
f 190/190/190 189/189/189 191/191/191
f 190/190/190 191/191/191 192/192/192
f 192/192/192 191/191/191 193/193/193
f 192/192/192 193/193/193 194/194/194
f 194/194/194 193/193/193 195/195/195
f 194/194/194 195/195/195 196/196/196
f 196/196/196 195/195/195 197/197/197
f 196/196/196 197/197/197 198/198/198
f 198/198/198 197/197/197 199/199/199
f 198/198/198 199/199/199 200/200/200
f 200/200/200 199/199/199 201/201/201
f 200/200/200 201/201/201 202/202/202
f 174/174/174 173/173/173 202/202/202
f 174/174/174 202/202/202 201/201/201
f 203/203/203 204/204/204 205/205/205
f 203/203/203 205/205/205 206/206/206
f 204/204/204 207/207/207 208/208/208
f 204/204/204 208/208/208 205/205/205
f 207/207/207 209/209/209 210/210/210
f 207/207/207 210/210/210 208/208/208
f 211/211/211 212/212/212 213/213/213
f 211/211/211 213/213/213 214/214/214
f 212/212/212 215/215/215 216/216/216
f 212/212/212 216/216/216 213/213/213
f 215/215/215 217/217/217 218/218/218
f 215/215/215 218/218/218 216/216/216
f 217/217/217 219/219/219 220/220/220
f 217/217/217 220/220/220 218/218/218
f 219/219/219 221/221/221 222/222/222
f 219/219/219 222/222/222 220/220/220
f 221/221/221 223/223/223 224/224/224
f 221/221/221 224/224/224 222/222/222
f 223/223/223 225/225/225 226/226/226
f 223/223/223 226/226/226 224/224/224
f 225/225/225 227/227/227 228/228/228
f 225/225/225 228/228/228 226/226/226
f 227/227/227 229/229/229 230/230/230
f 227/227/227 230/230/230 228/228/228
f 229/229/229 231/231/231 232/232/232
f 229/229/229 232/232/232 230/230/230
f 231/231/231 233/233/233 234/234/234
f 231/231/231 234/234/234 232/232/232
f 233/233/233 203/203/203 206/206/206
f 233/233/233 206/206/206 234/234/234
f 235/235/235 236/236/236 237/237/237
f 235/235/235 237/237/237 238/238/238
f 239/239/239 240/240/240 241/241/241
f 239/239/239 241/241/241 242/242/242
f 243/243/243 244/244/244 245/245/245
f 243/243/243 245/245/245 246/246/246
f 247/247/247 248/248/248 249/249/249
f 247/247/247 249/249/249 250/250/250
f 251/251/251 252/252/252 253/253/253
f 251/251/251 253/253/253 254/254/254
f 255/255/255 256/256/256 257/257/257
f 255/255/255 257/257/257 258/258/258
f 259/259/259 260/260/260 261/261/261
f 259/259/259 261/261/261 262/262/262
f 263/263/263 264/264/264 265/265/265
f 263/263/263 265/265/265 266/266/266
f 267/267/267 268/268/268 269/269/269
f 267/267/267 269/269/269 270/270/270
f 271/271/271 272/272/272 273/273/273
f 271/271/271 273/273/273 274/274/274
f 275/275/275 276/276/276 277/277/277
f 275/275/275 277/277/277 278/278/278
f 279/279/279 280/280/280 281/281/281
f 279/279/279 281/281/281 282/282/282
f 283/283/283 284/284/284 285/285/285
f 283/283/283 285/285/285 286/286/286
f 287/287/287 288/288/288 289/289/289
f 287/287/287 289/289/289 290/290/290
f 291/291/291 292/292/292 293/293/293
f 291/291/291 293/293/293 294/294/294
f 295/295/295 296/296/296 297/297/297
f 295/295/295 297/297/297 298/298/298
f 299/299/299 300/300/300 301/301/301
f 299/299/299 301/301/301 302/302/302
f 303/303/303 304/304/304 305/305/305
f 303/303/303 305/305/305 306/306/306
f 307/307/307 308/308/308 309/309/309
f 307/307/307 309/309/309 310/310/310
f 311/311/311 312/312/312 313/313/313
f 311/311/311 313/313/313 314/314/314
f 315/315/315 316/316/316 317/317/317
f 315/315/315 317/317/317 318/318/318
f 319/319/319 320/320/320 321/321/321
f 319/319/319 321/321/321 322/322/322
f 323/323/323 324/324/324 325/325/325
f 323/323/323 325/325/325 326/326/326
f 327/327/327 328/328/328 329/329/329
f 327/327/327 329/329/329 330/330/330
f 331/331/331 332/332/332 333/333/333
f 331/331/331 333/333/333 334/334/334
f 335/335/335 336/336/336 337/337/337
f 335/335/335 337/337/337 338/338/338
f 339/339/339 340/340/340 341/341/341
f 339/339/339 341/341/341 342/342/342
f 343/343/343 344/344/344 345/345/345
f 343/343/343 345/345/345 346/346/346
f 347/347/347 348/348/348 349/349/349
f 347/347/347 349/349/349 350/350/350
f 351/351/351 352/352/352 353/353/353
f 351/351/351 353/353/353 354/354/354
f 355/355/355 356/356/356 357/357/357
f 355/355/355 357/357/357 358/358/358
f 359/359/359 360/360/360 361/361/361
f 359/359/359 361/361/361 362/362/362
f 363/363/363 364/364/364 365/365/365
f 363/363/363 365/365/365 366/366/366
f 367/367/367 368/368/368 369/369/369
f 367/367/367 369/369/369 370/370/370
f 371/371/371 372/372/372 373/373/373
f 371/371/371 373/373/373 374/374/374
f 375/375/375 376/376/376 377/377/377
f 375/375/375 377/377/377 378/378/378
f 379/379/379 380/380/380 381/381/381
f 379/379/379 381/381/381 382/382/382
f 383/383/383 384/384/384 385/385/385
f 383/383/383 385/385/385 386/386/386
f 387/387/387 388/388/388 389/389/389
f 387/387/387 389/389/389 390/390/390
f 391/391/391 392/392/392 393/393/393
f 391/391/391 393/393/393 394/394/394
f 395/395/395 396/396/396 397/397/397
f 395/395/395 397/397/397 398/398/398
f 399/399/399 400/400/400 401/401/401
f 399/399/399 401/401/401 402/402/402
f 403/403/403 404/404/404 405/405/405
f 403/403/403 405/405/405 310/310/310
f 406/406/406 407/407/407 408/408/408
f 406/406/406 408/408/408 409/409/409
f 315/315/315 410/410/410 411/411/411
f 315/315/315 411/411/411 412/412/412
f 413/413/413 414/414/414 415/415/415
f 413/413/413 415/415/415 416/416/416
f 417/417/417 418/418/418 419/419/419
f 417/417/417 419/419/419 420/420/420
f 421/421/421 422/422/422 423/423/423
f 421/421/421 423/423/423 424/424/424
f 425/425/425 426/426/426 427/427/427
f 428/428/428 429/429/429 430/430/430
f 431/431/431 432/432/432 433/433/433
f 430/430/430 434/434/434 435/435/435
f 435/435/435 434/434/434 436/436/436
f 435/435/435 436/436/436 437/437/437
f 437/437/437 436/436/436 438/438/438
f 437/437/437 438/438/438 439/439/439
f 439/439/439 438/438/438 440/440/440
f 439/439/439 440/440/440 441/441/441
f 441/441/441 440/440/440 442/442/442
f 441/441/441 442/442/442 443/443/443
f 444/444/444 445/445/445 446/446/446

# BEGIN_MODEL_TREE
# MODELNODE Sketchfab_model
# LOCALTRANS 1 0 0 0 0 -3.57628e-07 -1 0 0 1 -3.57628e-07 0 0 0 0 1
# MESH 0
# CHILDREN 1
#     MODELNODE ee2deda453454ff3824a577167458d9b.obj.cleaner.materialmerger.gles
#     LOCALTRANS 1 0 0 0 0 1 0 0 0 0 1 0 0 0 0 1
#     MESH 0
#     CHILDREN 2
#         MODELNODE Object_2
#         LOCALTRANS 1 0 0 0 0 1 0 0 0 0 1 0 0 0 0 1
#         MESH 1 0
#         CHILDREN 0
#         MODELNODE Object_3
#         LOCALTRANS -1.78814e-08 0.15 0 0 -0.1 -1.19209e-08 0 0 0 0 0.15 0 0 0 0 1
#         MESH 1 1
#         CHILDREN 0
# END_MODEL_TREE
